<?xml version="1.0" encoding="utf-8"?>
<!-- Generator: Adobe Illustrator 27.5.0, SVG Export Plug-In . SVG Version: 6.00 Build 0)  -->
<svg version="1.1" xmlns="http://www.w3.org/2000/svg" xmlns:xlink="http://www.w3.org/1999/xlink" x="0px" y="0px"
	 viewBox="0 0 500 500" style="enable-background:new 0 0 500 500;" xml:space="preserve">
<g id="BACKGROUND">
	<rect style="fill:#273B5B;" width="500" height="500"/>
</g>
<g id="OBJECTS">
	<g>
		
			<ellipse transform="matrix(0.7071 -0.7071 0.7071 0.7071 -75.3592 241.2583)" style="fill:#3C5B87;" cx="253.545" cy="211.596" rx="129.49" ry="129.49"/>
	</g>
	<g>
		<g>
			<path style="fill:#FEFDFF;" d="M215.56,81.619c-5.407-0.118-12.735,6.457-9.327,17.757c3.408,11.3,13.99,19.55,18.833,21.703
				c4.843,2.152,6.098-0.717,5.022-2.87c-1.076-2.152-1.614-6.441-2.332-16.493C227.039,91.663,223.81,81.798,215.56,81.619z"/>
			<path style="fill:#FEFDFF;" d="M220.761,128.611c0.83,1.826-5.022,5.919-11.479,6.098c-6.457,0.179-16.501-5.381-13.99-13.632
				c2.511-8.251,9.487-5.919,12.546-2.152c3.059,3.767,6.17,6.816,8.56,7.533C218.788,127.177,219.864,126.639,220.761,128.611z"/>
			<path style="fill:#FEFDFF;" d="M188.637,85.565c-2.339-0.094-6.977,3.229-6.439,9.686s6.15,6.278,10.787,1.076
				C197.623,91.125,193.103,85.744,188.637,85.565z"/>
			<path style="fill:#FEFDFF;" d="M287.484,113.186c-4.606-0.218-7.533,0.717-6.816,4.484c0.717,3.767,5.022,4.036,6.816,4.17
				c1.794,0.134,3.946,0.852,5.381-2.018C294.3,116.953,291.279,113.366,287.484,113.186z"/>
			<path style="fill:#FEFDFF;" d="M168.061,139.41c-1.295-2.69-3.163-4.141-6.716-3.312c-3.553,0.828-6.589,5.465-5.816,8.778
				c0.773,3.312,3.589,0,6.901,0C165.742,144.875,169.285,141.953,168.061,139.41z"/>
			<path style="fill:#FEFDFF;" d="M130.133,155.475c-1.808-1.828-6.127-2.192-7.452,1.057c-1.325,3.249-4.17,9.874,1.062,6.892
				c5.232-2.981,3.574-1.707,6.39-3.752C132.949,157.628,131.492,156.85,130.133,155.475z"/>
			<path style="fill:#EDECC8;" d="M211.582,82.63c0,0-2.575,5.625,1.258,16.165c3.833,10.54,9.824,20.382,17.248,19.414
				c0,0,0.959,1.765,0,3.632c-0.959,1.867-7.549,1.495-17.908-11.494C201.821,97.358,204.576,86.587,211.582,82.63z"/>
			<path style="fill:#EDECC8;" d="M191.39,86.339c0,0,1.786,3.23,0,6.525c-1.786,3.295-3.152,7.704-7.739,6.218
				c0,0,2.249,4.827,8.533-1.444C198.467,91.369,194.144,87.114,191.39,86.339z"/>
			<path style="fill:#EDECC8;" d="M196.757,117.588c0,0-1.371,7.3,4.361,10.782c5.733,3.482,9.326,4.704,12.679,3.255
				c3.354-1.449,3.466-3.573,5.925-4.308c2.459-0.734,3.185,1.862-2.687,5.355c-5.873,3.492-15.174,4.047-18.939,0
				C194.331,128.624,192.413,125.361,196.757,117.588z"/>
			<path style="fill:#EDECC8;" d="M166.078,136.786c0,0,1.459,4.244-1.721,4.32c-3.18,0.076-5.136,0.932-6.114,2.277
				c-0.978,1.345-3.248,2.3-2.973,0.734c0,0-0.189,2.881,1.873,2.215c2.062-0.667,2.992-1.677,5.286-1.457
				c2.295,0.22,3.897-0.381,5.236-2.587C169.004,140.082,167.921,138.505,166.078,136.786z"/>
			<path style="fill:#EDECC8;" d="M124.125,159.699c3.319-1.426,3.726-4.511,4.859-5.033c1.133-0.522,3.305,1.79,2.586,3.569
				c-0.719,1.779-6.527,4.584-7.827,5.189c-1.3,0.606-4.246,1.619-3.033-1.698C121.924,158.41,123.25,160.076,124.125,159.699z"/>
			<path style="fill:#EDECC8;" d="M280.56,115.495c0,0,0.887,2.198,4.671,2.69c3.783,0.492,8.359-0.186,7.7-1.345
				c0,0,2.227,3.373-2.162,5C286.379,123.468,278.814,121.177,280.56,115.495z"/>
		</g>
		<g>
			<g>
				<path style="fill:#FFD300;" d="M366.741,188.97c0,0,11.832-3.635,22.719-2.504c10.887,1.131,16.83,7.173,23.094,20.15
					c6.264,12.978,12.583,32.883,15.952,44.706c3.369,11.824,7.446,35.39,2.371,44.559c-5.074,9.169-19.496,19.118-23.013,20.876
					c-3.517,1.757-9.25-2.413-11.725-8.615c-2.475-6.202-3.038-13.945-1.667-15.235c1.371-1.29,11.767-1.506,14.938-9.401
					c3.171-7.895-1.753-29.889-5.855-43.866c-4.102-13.977-7.77-24.744-15.254-23.907c-7.484,0.838-9.92,2.095-9.92,2.095
					s-12.009,0.7-15.185-8.721c-3.176-9.42-0.368-14.13,0.495-16.234C364.555,190.768,364.976,189.455,366.741,188.97z"/>
				<g>
					<path style="fill:#774407;" d="M388.765,191.797c1.028-0.682,2.316-0.952,3.568-0.882c1.266,0.087,2.462,0.552,3.586,1.124
						c2.185,1.267,4.002,3.08,5.522,5.056c3.051,3.978,5.164,8.538,7.086,13.082c3.747,9.151,6.731,18.556,9.452,28.023
						c2.661,9.486,5.108,19.029,6.852,28.761c0.208,1.22,0.424,2.436,0.57,3.677c0.187,1.212,0.284,2.517,0.306,3.771
						c-0.029,2.464-0.081,4.935-0.247,7.404c-0.194,2.467-0.484,4.936-1.021,7.358c-0.279,1.209-0.613,2.405-1.048,3.566
						c-0.462,1.151-1.013,2.264-1.697,3.288c1.172-2.172,1.774-4.565,2.159-6.965c0.362-2.411,0.481-4.853,0.505-7.293
						c0.03-2.442-0.03-4.888-0.126-7.337c-0.092-1.199-0.209-2.345-0.439-3.556c-0.183-1.194-0.441-2.39-0.688-3.585
						c-1.034-4.774-2.176-9.543-3.421-14.284c-1.239-4.743-2.495-9.483-3.869-14.19c-2.665-9.434-5.544-18.817-8.916-27.994
						c-1.759-4.546-3.606-9.084-6.345-13.079c-1.336-2.008-2.953-3.849-4.942-5.194c-1.022-0.61-2.123-1.127-3.317-1.297
						C391.119,191.076,389.851,191.213,388.765,191.797z"/>
				</g>
				<path style="fill:none;stroke:#000000;stroke-width:1.1242;stroke-miterlimit:10;" d="M390.797,202.49
					c0,0,4.713-0.127,8.418,8.086"/>
				<path style="fill:#F29F05;" d="M394.372,302.068c0,0,19.376-10.276,22.511-22.32c3.135-12.044-2.068-30.277-7.155-47.174
					c-5.087-16.897-8.072-26.491-17.471-31.794c-9.399-5.303-29.825,5.7-29.825,5.7s0.553,11.604,15.95,11.348
					c0,0,7.7-2.293,11.159-2.122c3.459,0.171,6.765,3.44,9.675,12.247c2.91,8.807,6.735,20.421,8.403,28.858
					c1.73,8.753,3.174,21.485,2.483,24.09c-0.69,2.605-3.222,7.675-8.316,9.572c-6.469,2.408-7.628,1.826-7.83,3.558
					C393.754,295.763,393.868,299.882,394.372,302.068z"/>
				<path style="fill:#AA6707;" d="M374.159,217.507c0,0,10.981-5.751,16.638-4.554c5.657,1.196,7.784,5.715,10.442,11.961
					c2.658,6.246,6.911,22.328,8.905,31.764c1.993,9.436,3.323,19.936,2.392,23.657c-0.93,3.721-4.183,6.561-7.74,8.464
					c0,0,6.298-3.882,5.225-15.011c-1.073-11.129-5.352-28.934-7.169-34.616c-1.817-5.682-4.574-14.504-5.877-16.799
					c-1.303-2.295-4.381-6.971-7.434-6.667c-3.054,0.304-8.631,1.283-11.159,2.122C378.382,217.828,375.787,218.207,374.159,217.507
					z"/>
				<path style="fill:#FFEA94;" d="M366.27,198.751c0,0,8.889-3.126,14.199-3.602c5.31-0.476,12.447-0.714,16.491,2.379
					c4.045,3.093,7.618,10.036,8.805,13.048c0,0,0.83,1.882-0.716,2.773c-1.546,0.892-2.379-1.308-2.855-2.141
					c-0.476-0.833-3.71-9.59-8.695-11.873c-4.985-2.282-18.977,0.319-23.698,1.873s-5.791,0.563-5.553-0.428
					C364.486,199.788,365.012,199.176,366.27,198.751z"/>
				<path style="fill:#FFEA94;" d="M379.117,190.052c-3.005,0.146-5.038,1.172-4.958,2.599c0.081,1.428,3.855,0.357,6.309,0
					C382.923,192.294,383.637,189.832,379.117,190.052z"/>
				<path style="fill:#FFEA94;" d="M417.833,286.858c-1.058,4.299-5.483,7.61-10.323,11.139c-4.839,3.529-8.587,7.068-6.823,9.156
					c1.763,2.088,10.869-5.41,15.244-10.148c4.375-4.738,6.359-9.683,6.139-14.375C421.85,277.939,419.327,280.787,417.833,286.858z
					"/>
				<g>
					<path style="fill:#774407;" d="M370.947,195.894c0.646-0.675,1.377-1.118,2.129-1.485c0.756-0.357,1.543-0.616,2.353-0.783
						c0.81-0.164,1.643-0.237,2.488-0.192c0.845,0.058,1.71,0.211,2.537,0.647c-0.789,0.501-1.533,0.825-2.289,1.104
						c-0.755,0.274-1.513,0.491-2.288,0.644c-0.775,0.157-1.564,0.259-2.377,0.29C372.685,196.143,371.852,196.113,370.947,195.894z
						"/>
				</g>
				<g>
					<path style="fill:#774407;" d="M419.425,264.77c0.626,0.735,0.983,1.569,1.239,2.414c0.248,0.848,0.366,1.722,0.371,2.598
						c0.009,0.876-0.106,1.756-0.354,2.61c-0.243,0.852-0.636,1.683-1.256,2.411c-0.297-0.923-0.397-1.752-0.504-2.578
						c-0.086-0.821-0.128-1.625-0.133-2.432c-0.002-0.807,0.037-1.616,0.123-2.443C419.005,266.52,419.137,265.684,419.425,264.77z"
						/>
				</g>
				<g>
					<path style="fill:#774407;" d="M431.628,265.385c1.56,5.077,2.438,10.37,2.677,15.726c0.111,2.682-0.02,5.382-0.368,8.08
						c-0.41,2.686-1.165,5.383-2.428,7.875c-1.288,2.489-3.032,4.623-4.899,6.577c-1.882,1.949-3.904,3.727-6.049,5.328
						c-4.253,3.246-8.848,5.992-13.681,8.189c4.366-3.008,8.622-6.124,12.575-9.55c1-0.844,1.933-1.754,2.901-2.624
						c0.914-0.922,1.859-1.815,2.697-2.795c1.732-1.901,3.351-3.926,4.462-6.161c2.321-4.435,2.864-9.733,3.043-14.907
						C432.65,275.908,432.276,270.647,431.628,265.385z"/>
				</g>
				<g>
					<path style="fill:#774407;" d="M370.299,188.05c4.314-1.556,8.862-2.461,13.484-2.786c2.314-0.181,4.652-0.08,6.994,0.145
						c2.334,0.338,4.667,0.9,6.886,1.908c4.37,2.301,7.56,5.826,10.218,9.635c2.626,3.826,4.666,8.019,5.957,12.419
						c-2.153-4.033-4.574-7.873-7.366-11.374c-1.422-1.726-2.886-3.405-4.523-4.889c-1.631-1.474-3.393-2.843-5.258-3.765
						c-1.925-0.918-4.05-1.447-6.212-1.832c-2.182-0.325-4.403-0.472-6.646-0.499C379.35,187.001,374.826,187.399,370.299,188.05z"
						/>
				</g>
			</g>
			<path style="fill:none;stroke:#000000;stroke-width:1.1242;stroke-miterlimit:10;" d="M267.089,208.876
				c0,0-7.722-6.124-14.112,3.195"/>
			<path style="fill:#FFD300;" d="M366.431,159.725l6.468,22.51c0,0,28.643,95.296,31.877,105.46
				c3.234,10.164,6.93,30.673,6.93,30.673s7.413,0.739,8.778,9.982c2.588,17.527-24.75,42.306-64.942,57.333
				c-40.193,15.027-110.286,15.002-90.563-25.096c0,0-28.025-87.697-36.812-120.181c-8.787-32.484-9.585-37.543-9.585-37.543
				s30.886-20.768,63.903-32.484C315.5,158.662,366.431,159.725,366.431,159.725z"/>
			<path style="fill:#F29F05;" d="M341.773,359.105c-11.216,3.566-42.774,14.378-48.214,20.733
				c-5.44,6.354-14.025,13.316,4.068,15.263c18.093,1.947,48.226-5.165,67.421-13.258c19.195-8.094,47.794-26.16,52.426-41.03
				c4.632-14.87-5.376-14.303-9.328-14.586c-3.952-0.283-4.686,15.43-13.139,19.65S356.483,354.428,341.773,359.105z"/>
			<path style="fill:#AA6707;" d="M382.414,351.834c-5.411,2.916-19.563,11.048-37.837,17.548
				c-18.273,6.5-36.724,10.485-41.73,10.922c-5.006,0.438-14.6,6.934-8.067,10.764c6.533,3.83,27.135,0.156,47.552-6.994
				s27.468-11.798,27.468-11.798s10.254,2.122,21.088-5.097c10.834-7.219,20.171-13.313,22.396-20.528
				c2.225-7.215-5.715-6.835-9.555-3.728c-3.84,3.107-12.269,11.746-15.691,14.369C384.617,359.916,388.903,348.337,382.414,351.834
				z"/>
			<path style="fill:#F29F05;" d="M225.237,205.791c0,0,20.236,64.968,30.354,99.582s15.368,56.037,18.064,52.876
				c7.721-9.053,43.89-24.361,72.38-33.946c28.49-9.585,59.995-6.15,59.729-10.41c-0.266-4.26-28.756-105.973-36.478-129.137
				c-7.722-23.165-9.322-25.04-9.322-25.04s-40.736-1.32-77.48,10.662c-36.744,11.982-58.008,28.711-58.008,28.711
				S224.063,202.014,225.237,205.791z"/>
			<path style="fill:#FFEA94;" d="M312.093,205.85l30.24,89.828c0,0,1.625,9.337,8.291,8.944l-37.28-112.917
				C313.344,191.705,306.27,193.297,312.093,205.85z"/>
			<path style="fill:#FFD300;" d="M411.706,318.367c0,0-22.162,2.132-30.105-13.745c-7.942-15.877-41.357-138.069-41.357-138.069
				s17.827-7.919,26.187-6.828L411.706,318.367z"/>
			<path style="fill:#F29F05;" d="M361.721,184.189c0,0,17.195,49.19,23.019,68.423s14.108,43.384,12.754,49.457
				c0,0-2.34,2.931-9.991-20.901c-7.651-23.833-33.367-101.564-33.367-101.564S356.1,172.387,361.721,184.189z"/>
			<path style="fill:#AA6707;" d="M312.093,205.85c0,0,4.624,10.735,5.75,17.199c1.126,6.464,0.813,13.93-5.75,22.89
				c-6.563,8.959-16.559,24.913-24.253,22.909c0,0,12.533,44.666,21.084,51.195c8.551,6.529,47.044-2.195,58.419,0
				c11.374,2.195,9.55,5.659,0,7.587c-9.551,1.928-10.766,2.008-13.891,3.461c-3.125,1.453-0.38,4.022,20.646,0
				c21.025-4.021,27.994-4.435,28.813,2.176c0.82,6.611-2.481,5.049-9.411,5.013c-6.93-0.036-74.906,19.974-95.872,33.997
				c-20.966,14.023-7.639,14.191-7.639,14.191s-14.946,5.937-18.367-5.328c-3.421-11.265,20.094-23.745,26.006-27.211
				c5.912-3.466,9.406-10.512,0-5.087c-9.406,5.425-30.672,17.951-32.649,11.745c-1.977-6.206-28.805-95.526-44.892-151.1
				c0,0,45.734-24.554,82.761-37.354c37.026-12.801,68.1,17.829,68.1,17.829s0.639,1.933,2.076,6.704
				c1.437,4.77-14.134,2.38-14.389-1.798c-0.255-4.178,0.309,11.018-4.497,14.619s-13.236,6.93-16.947,6.497
				c-3.711-0.433-8.089-2.564-10.169-5.716c-2.08-3.153-4.498,1.824-9.179,0C313.162,208.443,312.093,205.85,312.093,205.85z"/>
			<path style="fill:#F29F05;" d="M265.216,309.754l9.438,30.412c0,0-0.348,5.448-2.154,1.827
				c-1.807-3.621-9.423-27.799-9.423-27.799l2.14-6.937V309.754z"/>
			<g>
				<path style="fill:#FEFDFF;" d="M370.947,189.961c0,0-0.331,3.201-9.916,1.341c-9.586-1.861-3.58-3.623-14.171-4.286
					c-10.591-0.662-8.461-5.735-11.656-3.864c-3.195,1.871-3.525,5.487-8.153,10.735c-4.628,5.248-12.882,3.65-21.669,2.585
					c-8.787-1.065-6.39,7.455-13.313,8.254c-6.923,0.799-9.053-4.527-14.378-2.396c-5.325,2.13-1.864,2.929-8.52,4.26
					c-6.656,1.331-11.715,0.266-14.644,6.124c-2.929,5.858-4.26,8.254-13.047,8.787c-8.787,0.533-7.343-0.65-10.728,2.072
					l-4.986-16.082c0,0-2.052-4.718-1.29-8.401c0.761-3.683,7.989-8.514,21.017-16.349c13.028-7.835,35.926-16.622,56.695-20.882
					c20.768-4.26,54.049-5.325,55.515-5.325c1.465,0,3.048,4.286,4.789,8.944C364.231,170.133,370.947,189.961,370.947,189.961z"/>
				<path style="fill:#EDECC8;" d="M312.814,197.349c0,0,9.997,2.538,14.237-3.462c4.241-6,5.162-9.057,7.891-9.698
					c2.729-0.641,6.297,6.624,10.95,5.85c4.653-0.774,4.359-1.323,8.246,0c3.887,1.323,6.634,3.876,12.174,3.334
					c5.54-0.541,4.858-2.777,3.256-7.476c-1.602-4.699-4.72-13.765-4.72-13.765s4.575,13.474-1.298,14.522
					c-5.873,1.048-10.19-3.139-12.925-4.404c-2.735-1.264-8.047,0.193-10.38-1.207c-2.333-1.4-5.529-3.399-8.632-1.44
					c-3.103,1.959-4.83,10.433-8.668,11.473c-3.838,1.04-10.554,1.232-16.311,1.232c-5.757,0-7.995,4.461-8.219,7.028
					c0,0,3.224-3.112,6.969-2.863C309.127,196.721,312.814,197.349,312.814,197.349z"/>
			</g>
			<g>
				<g>
					<path style="fill:#774407;" d="M271.62,365.813c4.436-3.933,9.306-7.342,14.2-10.695c4.98-3.224,10.056-6.32,15.311-9.087
						c10.482-5.579,21.383-10.433,32.665-14.191c11.281-3.717,22.78-6.898,34.527-8.715c2.932-0.467,5.836-1.105,8.801-1.341
						l8.851-0.942c2.943-0.373,5.919-0.36,8.878-0.505c2.961-0.123,5.921-0.219,8.877-0.294c-2.947,0.319-5.891,0.617-8.834,0.889
						c-2.939,0.313-5.891,0.467-8.801,1.006c-5.838,0.903-11.695,1.61-17.453,2.914l-4.333,0.876c-1.442,0.301-2.9,0.527-4.32,0.927
						l-8.566,2.176c-2.874,0.653-5.664,1.61-8.489,2.44c-2.811,0.877-5.658,1.642-8.41,2.697l-8.331,2.938l-8.193,3.306
						c-5.426,2.287-10.797,4.72-16.061,7.372C291.419,352.89,281.135,358.764,271.62,365.813z"/>
				</g>
				<g>
					<path style="fill:#774407;" d="M276.408,373.538c2.828-3.46,6.14-6.501,9.616-9.306c3.477-2.814,7.173-5.359,11.028-7.634
						c0.955-0.583,1.94-1.116,2.927-1.644c0.991-0.52,1.954-1.093,2.968-1.568c2.03-0.946,4.025-1.959,6.123-2.747
						c4.121-1.735,8.425-3.02,12.772-3.987c-4.061,1.859-8.122,3.577-12.05,5.586c-3.954,1.942-7.816,4.052-11.596,6.294
						c-3.81,2.197-7.488,4.614-11.125,7.1C283.443,368.139,279.883,370.748,276.408,373.538z"/>
				</g>
				<g>
					<path style="fill:#774407;" d="M327.021,344.108c0.697-0.802,1.488-1.395,2.305-1.923c0.822-0.52,1.68-0.954,2.57-1.314
						c0.889-0.361,1.812-0.644,2.77-0.835c0.959-0.182,1.952-0.297,3.009-0.158c-0.754,0.747-1.55,1.307-2.375,1.808
						c-0.826,0.493-1.68,0.915-2.563,1.269c-0.882,0.354-1.792,0.644-2.736,0.857C329.055,344.017,328.082,344.162,327.021,344.108z
						"/>
				</g>
				<g>
					<path style="fill:#774407;" d="M285.594,382.024c-0.307-0.622-0.22-1.367-0.033-2.017c0.16-0.683,0.523-1.274,0.834-1.896
						c0.403-0.555,0.786-1.139,1.233-1.662l1.401-1.521c1.031-0.902,2.009-1.888,3.125-2.687l1.633-1.259
						c0.55-0.412,1.13-0.775,1.695-1.165c2.255-1.572,4.651-2.899,7.018-4.281c2.419-1.273,4.821-2.602,7.303-3.745
						c9.857-4.748,20.047-8.722,30.318-12.406c10.299-3.613,20.743-6.893,31.432-9.252c5.34-1.183,10.748-2.121,16.215-2.573
						c2.734-0.192,5.484-0.286,8.225-0.074c1.368,0.102,2.737,0.275,4.074,0.606c1.311,0.366,2.676,0.821,3.664,1.786
						c-1.061-0.875-2.426-1.201-3.736-1.454c-1.328-0.237-2.68-0.328-4.03-0.343c-2.702-0.042-5.404,0.219-8.083,0.575
						c-5.366,0.707-10.669,1.865-15.925,3.185c-5.249,1.356-10.473,2.826-15.643,4.481c-5.179,1.626-10.329,3.35-15.443,5.182
						c-5.129,1.79-10.222,3.694-15.281,5.661c-2.551,0.936-5.058,1.972-7.565,3.01c-2.522,1.008-5.003,2.098-7.481,3.2
						c-4.95,2.208-9.841,4.569-14.47,7.365c-0.578,0.349-1.176,0.674-1.74,1.044l-1.676,1.135c-1.151,0.721-2.153,1.618-3.225,2.444
						l-1.456,1.398c-0.468,0.482-0.865,1.023-1.3,1.538c-0.344,0.569-0.749,1.118-0.955,1.76
						C285.49,380.671,285.342,381.382,285.594,382.024z"/>
				</g>
				<g>
					<path style="fill:#774407;" d="M297.627,384.075c8.445-0.797,16.748-2.444,24.951-4.393c4.1-0.988,8.169-2.097,12.202-3.314
						l6.035-1.879l5.957-2.112c2.005-0.65,3.941-1.485,5.908-2.241c1.955-0.784,3.937-1.505,5.849-2.392l5.794-2.533
						c0.977-0.4,1.903-0.905,2.854-1.36l2.846-1.381c3.835-1.771,7.5-3.863,11.236-5.846c1.9-0.939,3.677-2.085,5.507-3.15
						c1.814-1.089,3.646-2.157,5.491-3.21c-1.708,1.254-3.43,2.493-5.169,3.712c-1.744,1.21-3.439,2.504-5.263,3.594
						c-3.621,2.221-7.2,4.538-10.999,6.461c-7.444,4.143-15.313,7.474-23.288,10.46c-7.996,2.949-16.242,5.202-24.583,6.9
						C314.615,383.066,306.121,384.146,297.627,384.075z"/>
				</g>
				<g>
					<path style="fill:#774407;" d="M413.237,334.286c-0.117,2.218-0.915,4.353-1.819,6.382c-0.978,2-2.103,3.947-3.441,5.73
						c-2.634,3.601-5.762,6.827-9.187,9.645l-1.277,1.069l-1.332,0.993l-2.669,1.979c-1.856,1.203-3.694,2.434-5.6,3.547
						c-1.933,1.065-3.862,2.135-5.835,3.111c-2.009,0.91-4.011,1.823-6.052,2.642c1.813-1.263,3.664-2.431,5.508-3.603l5.44-3.632
						l5.295-3.793l2.568-1.988l1.286-0.99l1.226-1.058c0.823-0.697,1.663-1.378,2.474-2.089l2.354-2.215
						c1.547-1.496,3.034-3.056,4.425-4.695c1.407-1.629,2.682-3.363,3.852-5.176C411.591,338.318,412.632,336.4,413.237,334.286z"/>
				</g>
			</g>
			<g>
				<g>
					<path style="fill:#774407;" d="M367.342,195.99c3.145,8.13,6.146,16.31,9.01,24.54c1.429,4.118,2.846,8.234,4.156,12.408
						c1.293,4.207,2.481,8.361,3.694,12.552c1.221,4.179,2.414,8.366,3.586,12.558c1.191,4.187,2.357,8.382,3.497,12.583
						c2.308,8.396,4.534,16.815,6.66,25.264l-0.021-0.057c0.37,1.069,0.493,2.102,0.49,3.166c-0.012,1.054-0.159,2.105-0.478,3.101
						c-0.336,0.985-0.735,1.956-1.335,2.8c-0.257,0.448-0.618,0.824-0.922,1.234c-0.333,0.389-0.702,0.746-1.049,1.117
						c0.312-0.404,0.644-0.791,0.936-1.204c0.263-0.435,0.58-0.832,0.79-1.294c0.497-0.877,0.835-1.829,1.084-2.79
						c0.238-0.967,0.305-1.965,0.248-2.945c-0.057-0.97-0.268-1.976-0.625-2.813l-0.009-0.021l-0.012-0.037
						c-2.659-8.297-5.217-16.625-7.693-24.976c-1.252-4.171-2.478-8.35-3.68-12.536c-1.22-4.181-2.42-8.367-3.591-12.562
						l-3.509-12.559l-3.775-12.483C372.248,212.713,369.743,204.37,367.342,195.99z"/>
				</g>
				<g>
					<path style="fill:#774407;" d="M388.765,309.224c-0.563,0.633-1.195,1.043-1.846,1.382c-0.654,0.33-1.336,0.566-2.038,0.72
						c-0.702,0.155-1.429,0.219-2.174,0.179c-0.737-0.052-1.528-0.184-2.253-0.642c0.691-0.48,1.304-0.818,1.961-1.102
						c0.65-0.278,1.31-0.485,1.99-0.632c0.679-0.146,1.376-0.228,2.095-0.234C387.224,308.897,387.962,308.958,388.765,309.224z"/>
				</g>
				<g>
					<path style="fill:#774407;" d="M332.348,212.07c3.331,8.808,6.525,17.656,9.582,26.549c3.087,8.882,6.049,17.806,8.987,26.737
						c2.898,8.945,5.77,17.9,8.518,26.9c1.387,4.495,2.734,9.006,4.069,13.521l0.244,0.849l0.122,0.424
						c0.047,0.128,0.103,0.232,0.152,0.351c0.19,0.47,0.552,0.884,0.934,1.271c0.798,0.762,1.813,1.34,2.86,1.819
						c1.053,0.478,2.16,0.855,3.287,1.161c1.126,0.305,2.274,0.583,3.451,0.627c-2.362,0.072-4.719-0.439-6.965-1.237
						c-1.118-0.421-2.225-0.938-3.196-1.735c-0.47-0.411-0.938-0.869-1.243-1.47c-0.076-0.147-0.163-0.3-0.227-0.444l-0.152-0.414
						l-0.303-0.828c-1.583-4.427-3.154-8.859-4.685-13.306c-3.087-8.885-6.052-17.815-8.99-26.755
						c-2.898-8.953-5.772-17.915-8.521-26.917C337.495,230.183,334.853,221.147,332.348,212.07z"/>
				</g>
			</g>
			<g>
				<g>
					<path style="fill:#774407;" d="M317.842,204.165c3.48,9.265,6.826,18.577,10.035,27.934c3.239,9.348,6.353,18.736,9.443,28.132
						c3.049,9.408,6.072,18.825,8.969,28.279c1.462,4.723,2.882,9.458,4.29,14.197c0.704,2.354,1.348,4.794,1.607,7.292
						c0.118,1.248,0.129,2.517-0.087,3.758c-0.224,1.234-0.694,2.438-1.474,3.405c0.688-1.035,1.03-2.244,1.138-3.451
						c0.12-1.211,0.03-2.433-0.168-3.634c-0.417-2.405-1.2-4.729-2.072-7.053c-1.659-4.662-3.307-9.326-4.913-14.003
						c-3.238-9.346-6.35-18.729-9.436-28.121c-3.045-9.404-6.066-18.816-8.962-28.268
						C323.286,223.188,320.497,213.7,317.842,204.165z"/>
				</g>
				<g>
					<path style="fill:#774407;" d="M299.125,259.115c2.778,5.823,5.349,11.723,7.846,17.651c2.511,5.923,4.898,11.893,7.263,17.874
						c2.326,5.996,4.625,12.003,6.804,18.061l0.818,2.272l0.409,1.136c0.14,0.37,0.261,0.789,0.418,1.073
						c0.561,1.287,1.753,2.294,3.097,3.02c1.341,0.756,2.859,1.243,4.405,1.59c1.55,0.343,3.144,0.555,4.757,0.545
						c-1.596,0.247-3.236,0.248-4.858,0.07c-1.624-0.174-3.246-0.541-4.791-1.215c-1.523-0.674-3.038-1.715-3.922-3.342
						c-0.25-0.412-0.378-0.764-0.54-1.138l-0.47-1.111l-0.94-2.222c-2.511-5.925-4.901-11.901-7.265-17.889
						c-2.325-6.003-4.627-12.016-6.806-18.076C303.155,271.358,301.036,265.275,299.125,259.115z"/>
				</g>
				<g>
					<path style="fill:#774407;" d="M341.773,320.042c0.264-0.465,0.528-0.707,0.792-0.881c0.264-0.165,0.528-0.242,0.792-0.243
						c0.264-0.002,0.528,0.075,0.792,0.24c0.264,0.173,0.528,0.416,0.792,0.884c-0.264,0.468-0.528,0.711-0.792,0.884
						c-0.264,0.165-0.528,0.242-0.792,0.24c-0.264-0.001-0.528-0.078-0.792-0.243C342.301,320.749,342.037,320.507,341.773,320.042z
						"/>
				</g>
			</g>
			<g>
				<g>
					<path style="fill:#774407;" d="M292.35,258.257c2.914,7.26,5.694,14.573,8.339,21.932c2.674,7.349,5.224,14.741,7.75,22.14
						l3.7,11.126c1.196,3.62,2.605,7.628,1.948,11.846c-0.17,1.04-0.479,2.075-0.973,3.033c-0.499,0.954-1.182,1.812-1.987,2.503
						c-0.806,0.698-1.701,1.235-2.584,1.684c-0.886,0.467-1.783,0.878-2.687,1.274c-3.642,1.501-7.321,2.834-11.077,3.944
						c3.575-1.585,7.172-3.124,10.605-4.939c0.855-0.453,1.712-0.904,2.525-1.402c0.828-0.488,1.587-1.02,2.22-1.643
						c0.633-0.628,1.159-1.344,1.532-2.14c0.366-0.8,0.585-1.668,0.69-2.559c0.113-0.89,0.095-1.81-0.003-2.727
						c-0.077-0.918-0.255-1.839-0.462-2.753c-0.414-1.814-1.146-3.652-1.782-5.497L306.295,303
						c-2.48-7.403-4.935-14.814-7.267-22.267C296.667,273.289,294.442,265.799,292.35,258.257z"/>
				</g>
				<g>
					<path style="fill:#774407;" d="M269.491,293.281c1.304,2.606,2.397,5.279,3.415,7.975c1.032,2.692,1.938,5.423,2.819,8.162
						c0.842,2.751,1.656,5.511,2.346,8.31c0.703,2.795,1.33,5.613,1.744,8.499c-1.307-2.605-2.401-5.278-3.418-7.974
						c-1.031-2.692-1.937-5.423-2.816-8.163c-0.839-2.752-1.654-5.512-2.343-8.311C270.536,298.984,269.907,296.166,269.491,293.281
						z"/>
				</g>
				<g>
					<path style="fill:#774407;" d="M281.376,331.091c0.598,0.219,0.998,0.483,1.347,0.77c0.341,0.289,0.612,0.6,0.831,0.94
						c0.219,0.341,0.388,0.704,0.508,1.123c0.118,0.425,0.202,0.874,0.2,1.519c-0.637,0.04-1.15-0.152-1.579-0.413
						c-0.422-0.269-0.769-0.615-1.02-1.014c-0.253-0.398-0.424-0.844-0.496-1.328C281.106,332.202,281.119,331.679,281.376,331.091z
						"/>
				</g>
				<g>
					<path style="fill:#774407;" d="M265.216,307.257c1.468,3.228,2.724,6.52,3.905,9.835c1.195,3.31,2.263,6.659,3.308,10.015
						c1.004,3.368,1.981,6.745,2.834,10.161c1.053,3.494,0.828,7.405-0.609,10.638c0.517-3.514,0.203-6.964-1.067-10.12
						c-1.194-3.311-2.263-6.661-3.305-10.019c-1.002-3.371-1.979-6.749-2.831-10.165
						C266.584,314.19,265.794,310.756,265.216,307.257z"/>
				</g>
			</g>
			<g>
				<circle style="fill:#FFEA94;" cx="354.137" cy="220.807" r="4.824"/>
				<path style="fill:#FFEA94;" d="M358.634,230.077c0,3.882-3.147,7.028-7.028,7.028c-3.882,0-7.028-3.147-7.028-7.028
					c0-3.882,3.147-7.028,7.028-7.028C355.487,223.048,358.634,226.195,358.634,230.077z"/>
			</g>
			<g>
				<path style="fill:#FFD300;" d="M323.798,255.43c0,3.727-3.021,6.748-6.748,6.748c-3.727,0-6.748-3.021-6.748-6.748
					c0-3.727,3.021-6.748,6.748-6.748C320.777,248.682,323.798,251.704,323.798,255.43z"/>
				<circle style="fill:#FFD300;" cx="369.801" cy="279.557" r="4.753"/>
			</g>
			<circle style="fill:#F29F05;" cx="287.298" cy="307.154" r="7.482"/>
			<g>
				<path style="fill:#FEFDFF;" d="M238.702,146.01c2.241,0.84,3.049-2.152,1.076-5.919c-1.973-3.767-5.022-14.17,2.332-20.806
					s14.887-3.408,19.55,6.278c4.664,9.685,12.555,10.762,17.398,11.3c4.843,0.538,8.071,5.56,8.071,5.56
					s8.968-11.658,20.447-10.762c11.479,0.897,12.555,6.816,19.012,6.278c6.457-0.538,15.567-9.327,25.451-8.609
					c9.884,0.717,14.009,5.202,14.547,10.941c0.538,5.74-1.076,10.044,2.87,14.528c3.946,4.484,15.486,15.77,9.147,20.501
					c-6.339,4.731-11.838,1.073-15.784-3.167c-3.946-4.24-11.12-7.903-15.066,1.731c-3.946,9.634,8.345,19.46,5.697,28.627
					c-2.648,9.167-19.682,14.241-21.103,0.126c-1.421-14.115-0.737-11.573-0.737-11.573s-1.424,12.089-9.77,13.123
					c-8.346,1.034-10.319-6.499-10.319-6.499s-8.251-10.916-14.708-6.624c-6.457,4.292-6.816,12.18-14.349,15.859
					c-7.533,3.679-19.371-7.896-27.263-2.736c-7.892,5.16-10.992,16.341-21.338,17.577c-10.346,1.236-10.834,1.573-15.285-7.933
					c-4.451-9.506-0.271-23.198,7.504-27.831c7.775-4.633,6.996-8.171,1.108-13.846c-5.888-5.675-1.584-11.414-1.584-11.414
					s-5.74-6.278-2.152-12.914C227.043,141.167,231.527,143.319,238.702,146.01z"/>
				<path style="fill:#EDECC8;" d="M317.842,188.085c0,0,2.703,9.93,5.956,7.866c3.253-2.064,8.39-6.27,5.111-15.799
					c0,0,4.605,2.316,5.652,11.553c1.047,9.237,6.474,12.715,11.436,10.784c4.962-1.931-0.603-15.329-4.44-20.24
					c-3.838-4.91,1.12-15.884,7.756-18.073c6.636-2.189,15.151,6.731,20.488,7.356c5.337,0.625,5.551-9.711,1.223-15.001
					c0,0,8.032,7.705,9.431,13.105c1.399,5.4-4.477,9.588-10.654,7.782c-6.177-1.807-10.379-9.116-13.651-9.491
					c-3.272-0.375-9.237,3.474-8.675,9.491c0.562,6.017,5.616,14.851,6.661,18.707c1.045,3.856,1.704,10.609-8.125,14.141
					c-9.828,3.532-11.935-0.797-13.664-7.652c-1.729-6.854-0.713-9.922-3.044-4.262c-2.331,5.66-7.647,8.754-14.488,4.136
					c-6.841-4.617-3.596-14.119-2.723-16.756c0.872-2.637,4.965-7.083,7.524-8.314C319.616,177.419,317.539,183.672,317.842,188.085
					z"/>
				<g>
					<g>
						<path style="fill:#774407;" d="M272.063,150.852c2.746-1.122,5.396-2.434,7.887-3.971c2.507-1.514,4.82-3.279,6.831-5.338
							c2.055-2.12,4.155-4.25,6.522-6.18c2.377-1.897,5.15-3.513,8.22-4.274c3.062-0.74,6.261-0.759,9.322,0.047
							c3.012,0.829,5.733,2.195,8.319,3.687c2.601,1.472,5.078,3.091,7.628,4.548c2.537,1.448,5.159,2.89,8.148,3.051
							c-1.483,0.192-2.998-0.067-4.453-0.452c-1.434-0.445-2.842-0.992-4.198-1.616c-2.716-1.251-5.327-2.669-7.951-3.982
							c-2.63-1.283-5.276-2.546-8.016-3.171c-2.675-0.651-5.575-0.619-8.254,0.069c-2.707,0.629-5.181,2.044-7.462,3.77
							c-2.3,1.721-4.404,3.78-6.613,5.763c-2.238,2.07-4.827,3.724-7.515,5.041C277.777,149.147,274.965,150.2,272.063,150.852z"/>
					</g>
					<g>
						<path style="fill:#774407;" d="M356.722,141.238c-0.091,0.334-0.092,0.674-0.095,1.016c-0.013,0.339-0.009,0.679,0,1.019
							c0.018,0.679,0.04,1.354,0.096,2.027c0.084,1.345,0.247,2.676,0.441,3.986c0.447,2.598,1.109,5.178,2.454,7.224
							c0.626,0.991,1.584,1.964,2.514,2.823c0.936,0.894,2.003,1.651,3.091,2.444c1.099,0.772,2.253,1.547,3.33,2.477
							c1.054,0.948,1.996,2.12,2.396,3.458c-1.69-2.248-4.21-3.103-6.648-4.442c-1.236-0.639-2.43-1.429-3.559-2.324
							c-0.568-0.443-1.081-0.958-1.584-1.475c-0.244-0.27-0.495-0.52-0.731-0.809l-0.685-0.916c-0.795-1.287-1.36-2.661-1.73-4.059
							c-0.319-1.407-0.546-2.816-0.586-4.229c-0.053-1.409,0.025-2.812,0.201-4.196c0.106-0.691,0.217-1.379,0.386-2.057
							C356.181,142.534,356.359,141.837,356.722,141.238z"/>
					</g>
					<g>
						<path style="fill:#774407;" d="M337.19,160.154c0.778,0.688,1.394,1.553,1.932,2.449c0.542,0.899,0.982,1.858,1.365,2.836
							c0.748,1.966,1.251,4.024,1.538,6.104c0.309,2.11,0.371,4.115,0.699,6.09c0.296,1.975,0.691,3.913,1.389,5.738
							c0.628,1.845,1.607,3.61,2.45,5.553c0.832,1.923,1.49,4.069,1.649,6.207c0.16,2.133,0.039,4.384-0.992,6.389
							c-0.532,0.976-1.331,1.85-2.342,2.317c-1.02,0.472-2.12,0.451-3.133,0.328c1.027-0.111,2.033-0.321,2.829-0.872
							c0.782-0.559,1.323-1.349,1.641-2.232c0.653-1.777,0.545-3.8,0.256-5.711c-0.182-0.96-0.412-1.911-0.714-2.833
							c-0.31-0.908-0.693-1.818-1.134-2.716c-0.844-1.798-1.884-3.629-2.623-5.663c-0.726-2.029-1.146-4.143-1.383-6.233
							c-0.219-2.097-0.241-4.206-0.332-6.18c-0.129-2.003-0.374-4.002-0.847-5.957c-0.216-0.984-0.516-1.947-0.874-2.893
							C338.197,161.934,337.787,160.995,337.19,160.154z"/>
					</g>
					<path style="fill:#EDECC8;" d="M331.611,191.042c0,0-0.053-5.424-2.702-10.89c-2.65-5.465-9.293-9.109-9.293-9.109"/>
				</g>
			</g>
			<path style="fill:#EDECC8;" d="M243.578,125.105c-0.031,0.175-0.051,0.369-0.068,0.579c-0.35,4.336,1.803,15.741,6.888,18.461
				c5.332,2.852,4.96,9.424,0,8.556c-4.96-0.868-7.145-6.683-9.959-11.091c-2.813-4.408-5.003-14.67-0.56-19.769
				C244.322,116.742,244.322,120.944,243.578,125.105z"/>
		</g>
	</g>
	<g>
		<path style="fill:#FFD300;" d="M142.137,175.324l-6.468,22.51c0,0-28.643,95.296-31.877,105.46
			c-3.234,10.164-6.93,30.673-6.93,30.673s-7.392,0.742-8.778,9.982c-1.386,9.24,17.556,27.693,57.748,42.721
			c40.193,15.027,111.858,19.599,97.757-10.484c0,0,28.026-87.697,36.812-120.181c8.787-32.484,9.585-37.543,9.585-37.543
			s-30.887-20.769-63.903-32.484C193.068,174.262,142.137,175.324,142.137,175.324z"/>
		<path style="fill:#F29F05;" d="M283.331,221.391c0,0-20.236,64.968-30.354,99.582c-10.118,34.614-15.177,56.714-25.295,58.578
			c-10.118,1.864-51.122-5.591-79.612-15.177c-28.49-9.586-45.797-26.36-45.531-30.62c0.266-4.26,29.023-110.233,36.744-133.398
			s9.322-25.04,9.322-25.04s40.736-1.32,77.48,10.662c36.744,11.982,58.008,28.712,58.008,28.712S284.505,217.614,283.331,221.391z"
			/>
		<path style="fill:#FFD300;" d="M247.503,194.082c0,0,24.561,8.408,36.59,20.607c0,0,0.971,1.08-3.776,16.42
			c-4.748,15.34-39.72,131.134-39.72,131.134s8.927,37.762-42.136,18.061c0,0-12.809-35.048,3.022-95.729
			C217.314,223.895,247.503,194.082,247.503,194.082z"/>
		<path style="fill:#AA6707;" d="M206.647,180.761c0,0-16.266,55.848-31.02,106.097c-14.753,50.249-27.592,83.29,8.983,95.166
			c0,0-76.143-15.356-87.627-50.934c0,0,5.224-24.554,12.279-46.781c7.055-22.227,32.874-108.986,32.874-108.986
			S174.664,174.585,206.647,180.761z"/>
		<path style="fill:#F29F05;" d="M134.406,237.105c0,0,7.441,3.63,14.948,2.067c0,0-8.357,15.483-17.26,45.405
			c-8.903,29.922-11.595,47.187-7.988,50.866c0,0-14.2,1.213-15.849-11.374c0,0,9.08-24.962,15.525-45.409
			C130.226,258.213,134.406,237.105,134.406,237.105z"/>
		<path style="fill:#AA6707;" d="M101.355,342.925c0,0-5.522-4.821-8.56-1.716c-3.038,3.105,1.717,17.223,20.293,27.083
			c18.576,9.859,33.708,15.739,46.165,19.784c12.456,4.045,16.375,0,16.375,0s24.878,5.358,35.314,2.994
			c10.436-2.364,11.678-5.387,11.678-5.387s-40.053-1.147-73.265-14.118C116.142,358.594,101.355,342.925,101.355,342.925z"/>
		<path style="fill:#AA6707;" d="M216.761,379.484c0,0,13.525,7.692,23.835-27.893c10.31-35.585,39.867-139.519,39.867-139.519
			s6.475,4.097,9.525,6.39c0,0-42.023,143.985-44.21,150.855c-2.188,6.87-0.29,15.64-23.159,16.366
			C199.75,386.408,206.634,378.778,216.761,379.484z"/>
		<g>
			<path style="fill:#FEFDFF;" d="M137.62,205.56c0,0,0.331,3.201,9.916,1.341c9.585-1.86,3.58-3.623,14.171-4.286
				c10.591-0.662,8.461-5.735,11.656-3.864c3.195,1.871,3.525,5.487,8.153,10.735c4.628,5.248,12.882,3.65,21.669,2.585
				c8.787-1.065,6.39,7.455,13.313,8.254c6.923,0.799,9.053-4.526,14.378-2.396c5.325,2.13,1.864,2.929,8.52,4.26
				c6.657,1.331,11.716,0.266,14.645,6.124c2.929,5.858,4.26,8.254,13.047,8.787c8.787,0.533,7.343-0.65,10.727,2.072l4.986-16.082
				c0,0,2.052-4.718,1.29-8.401c-0.761-3.683-7.989-8.514-21.017-16.35c-13.028-7.835-35.926-16.622-56.695-20.882
				c-20.769-4.26-54.049-5.325-55.515-5.325c-1.465,0-3.048,4.286-4.789,8.944C144.336,185.732,137.62,205.56,137.62,205.56z"/>
			<path style="fill:#EDECC8;" d="M170.998,191.042c0,0,0.877,3.574-9.29,4.948c-10.166,1.373-14.3,5.269-16.713,2.761
				c-2.413-2.508-4.415-3.02-1.667-10.348l-5.708,17.157c0,0,0.479,1.571,2.633,1.746c2.154,0.175,3.737,0.247,5.952-0.169
				c2.215-0.416,4.165-0.529,5.844-1.485c1.68-0.956,2.853-2.238,5.277-2.561c2.425-0.323,8.056,0.08,11.615-2.315
				s4.085-3.931,4.699-6.693c0.614-2.762-0.859-6.812-2.332-7.364C169.836,186.165,171.607,189.329,170.998,191.042z"/>
			<path style="fill:#EDECC8;" d="M176.762,202.615c0,0,1.393,6.36,8.398,9.456c7.006,3.096,19.842-1.379,22.154,0.393
				c2.311,1.772,3.709,7.19,7.727,7.535c4.017,0.345,6.717,0.358,12.152-2.448s5.804-7.635,3.617-8.065
				c-2.186-0.43-8.954,7.367-12.314,4.417c-3.36-2.95-4.886-10.562-11.182-11.287c-6.297-0.725-9.036,7.193-15.991,3.234
				c-6.954-3.959-9.062-10.492-12.644-9.649C175.096,197.044,175.988,200.52,176.762,202.615z"/>
			<path style="fill:#EDECC8;" d="M243.317,223.048c0,0,6.588-0.351,8.657,2.457s2.082,6.619,7.173,9.731
				c5.091,3.112,14.113,1.138,15.507,1.869c1.393,0.731,3.163,2.067,3.163,2.067s2.016-6.092,2.859-9.253
				c0,0-5.423,2.781-8.612,2.655c-3.189-0.126-8.227-1.788-12.03-7.068c-3.803-5.281-6.542-6.5-12.654-7.576
				c-6.111-1.076-8.999-1.708-9.873-0.655C236.632,218.328,237.568,222.289,243.317,223.048z"/>
			<g>
				<path style="fill:#774407;" d="M137.62,205.56c1.814,1.271,4.029,1.587,6.115,1.482c2.109-0.121,4.168-0.683,6.141-1.454
					c1.963-0.818,4.055-1.625,5.617-2.785c0.209-0.15,0.383-0.325,0.744-0.542c0.349-0.213,0.765-0.348,1.093-0.413
					c0.671-0.138,1.212-0.16,1.785-0.209c1.1-0.085,2.259-0.1,3.269-0.198c2.07-0.125,4.104-0.597,5.908-1.492
					c1.802-0.864,3.384-2.231,4.157-3.973l0.236-0.663c0.039-0.227,0.11-0.454,0.132-0.684c0.048-0.417,0.032-1.017,0.054-1.567
					c0.035-1.109,0.098-2.183,0.02-3.223c-0.048-1.046-0.318-2.048-0.775-3.004c-0.466-0.95-1.132-1.826-1.867-2.646
					c0.892,0.644,1.739,1.39,2.401,2.325c0.662,0.929,1.115,2.043,1.334,3.174c0.221,1.134,0.271,2.259,0.36,3.34
					c0.043,0.546,0.103,1.04,0.091,1.719c-0.006,0.317-0.068,0.626-0.104,0.942c-0.072,0.304-0.152,0.608-0.242,0.909
					c-0.814,2.404-2.767,4.107-4.819,5.242c-2.102,1.12-4.422,1.663-6.719,1.842c-1.174,0.09-2.21,0.08-3.297,0.147
					c-0.519,0.033-1.077,0.062-1.481,0.142c-0.209,0.041-0.32,0.078-0.442,0.147c-0.113,0.061-0.358,0.243-0.597,0.408
					c-1.01,0.693-2.075,1.162-3.114,1.599c-1.05,0.425-2.086,0.794-3.171,1.115c-2.157,0.678-4.448,1.042-6.729,0.901
					C141.476,207.953,139.122,207.234,137.62,205.56z"/>
			</g>
			<g>
				<path style="fill:#774407;" d="M172.042,198.353c0.833-0.029,1.68,0.255,2.389,0.736c0.721,0.477,1.285,1.165,1.726,1.904
					c0.824,1.494,1.474,2.986,2.362,4.35c1.679,2.764,4.135,4.938,7.088,5.973c2.943,1.04,6.179,1.063,9.395,0.716
					c1.611-0.175,3.229-0.402,4.863-0.663c1.658-0.234,3.239-0.579,5.141-0.582c0.262,0.022,0.477,0.008,0.777,0.073
					c0.288,0.075,0.63,0.132,0.852,0.262c0.506,0.214,0.931,0.538,1.316,0.866c0.75,0.678,1.258,1.422,1.745,2.113
					c0.944,1.397,1.822,2.647,2.961,3.61c0.285,0.258,0.57,0.44,0.85,0.633c0.314,0.16,0.618,0.337,0.967,0.455
					c0.675,0.268,1.415,0.438,2.172,0.527c1.515,0.185,3.098,0.102,4.64-0.206c3.066-0.625,6.08-2.076,8.302-4.339
					c1.118-1.115,1.953-2.513,2.354-4.066c0.421-1.552,0.39-3.23,0.117-4.866c0.502,1.578,0.765,3.287,0.494,4.991
					c-0.114,0.852-0.378,1.689-0.75,2.472c-0.359,0.792-0.836,1.53-1.389,2.201c-2.241,2.665-5.367,4.461-8.742,5.318
					c-1.687,0.437-3.455,0.625-5.239,0.453c-0.891-0.077-1.788-0.247-2.666-0.561c-0.443-0.138-0.87-0.355-1.297-0.565
					c-0.417-0.255-0.832-0.519-1.173-0.808c-1.439-1.147-2.474-2.662-3.402-3.989c-0.922-1.334-1.878-2.442-2.968-2.329
					c-1.418-0.022-3.114,0.283-4.735,0.506c-1.644,0.236-3.31,0.482-5.002,0.608c-1.689,0.134-3.409,0.158-5.134,0.007
					c-1.721-0.144-3.473-0.524-5.089-1.21c-1.62-0.678-3.133-1.651-4.375-2.883c-1.244-1.229-2.257-2.658-3.028-4.173
					c-0.784-1.506-1.341-3.117-1.957-4.606C174.987,199.848,173.728,198.55,172.042,198.353z"/>
			</g>
			<g>
				<path style="fill:#774407;" d="M227.192,217.551c1.217-0.23,2.491-0.235,3.745,0.029c0.629,0.126,1.247,0.35,1.828,0.667
					c0.6,0.327,1.086,0.731,1.576,1.07c0.977,0.718,1.97,1.28,3.076,1.638c1.103,0.36,2.27,0.61,3.459,0.796
					c2.389,0.365,4.801,0.574,7.309,0.895c0.637,0.096,1.278,0.199,1.963,0.42c0.675,0.211,1.404,0.559,1.998,1.079
					c0.593,0.515,1.038,1.129,1.372,1.715c0.346,0.589,0.629,1.183,0.885,1.772c0.497,1.177,0.889,2.31,1.423,3.294
					c0.527,0.987,1.201,1.821,2.041,2.503c0.835,0.688,1.844,1.205,2.917,1.615c1.098,0.375,2.217,0.677,3.418,0.92
					c2.384,0.487,4.723,0.863,7.124,0.592c1.239-0.133,2.614-0.051,3.809,0.326c0.607,0.18,1.213,0.394,1.761,0.737
					c0.273,0.168,0.526,0.385,0.717,0.648c0.188,0.258,0.305,0.602,0.204,0.903c0.044-0.653-0.562-1.04-1.08-1.251
					c-0.544-0.231-1.138-0.347-1.731-0.427c-1.21-0.177-2.338-0.123-3.529,0.158c-1.212,0.254-2.533,0.387-3.799,0.365
					c-1.277-0.009-2.527-0.161-3.77-0.322c-2.469-0.314-5.115-0.928-7.353-2.589c-1.11-0.825-2.006-1.953-2.656-3.126
					c-0.655-1.178-1.086-2.377-1.56-3.461c-0.452-1.072-0.974-2.139-1.635-2.72c-0.628-0.593-1.686-0.837-2.86-1.057
					c-2.359-0.423-4.857-0.689-7.304-1.275c-1.225-0.292-2.463-0.615-3.658-1.146c-1.2-0.522-2.308-1.301-3.229-2.149
					c-0.472-0.427-0.892-0.868-1.342-1.188c-0.462-0.337-0.989-0.6-1.544-0.809C229.649,217.77,228.426,217.556,227.192,217.551z"/>
			</g>
			<g>
				<path style="fill:#774407;" d="M258.949,220.807c1.524,1.249,3.075,2.341,4.692,3.074c0.814,0.354,1.638,0.58,2.445,0.668
					c0.405,0.057,0.803,0.036,1.2,0.014c0.198-0.013,0.391-0.068,0.587-0.097l0.293-0.049l0.354-0.089
					c1.893-0.455,3.836-0.827,5.857-0.851c1.007-0.019,2.039,0.061,3.052,0.343c0.501,0.15,0.999,0.366,1.433,0.67
					c0.436,0.311,0.774,0.742,0.954,1.202c-0.773-0.646-1.656-0.803-2.557-0.781c-0.895-0.002-1.804,0.151-2.712,0.313
					c-1.816,0.36-3.644,0.84-5.493,1.288l-0.348,0.081l-0.419,0.07c-0.281,0.038-0.559,0.105-0.841,0.112
					c-0.568,0.003-1.133,0.002-1.68-0.123c-1.09-0.216-2.113-0.642-2.973-1.244C261.059,224.231,259.742,222.628,258.949,220.807z"
					/>
			</g>
		</g>
		<circle style="fill:#F29F05;" cx="154.993" cy="231.109" r="4.127"/>
		<path style="fill:#FFD300;" d="M201.466,265.385c0,3.936-3.191,7.128-7.128,7.128c-3.937,0-7.128-3.191-7.128-7.128
			c0-3.937,3.191-7.128,7.128-7.128C198.275,258.257,201.466,261.448,201.466,265.385z"/>
		<circle style="fill:#F29F05;" cx="130.496" cy="295.678" r="6.39"/>
		<path style="fill:#F29F05;" d="M132.094,287.956c0,2.941,2.384,5.325,5.325,5.325c2.941,0,5.325-2.384,5.325-5.325
			c0-2.941-2.384-5.325-5.325-5.325C134.478,282.631,132.094,285.015,132.094,287.956z"/>
		<g>
			
				<ellipse transform="matrix(0.9731 -0.2305 0.2305 0.9731 -74.2792 47.6259)" style="fill:#FFD300;" cx="166.708" cy="341.741" rx="7.455" ry="7.455"/>
			<path style="fill:#FFD300;" d="M170.998,332.274c0,2.565-2.08,4.645-4.645,4.645c-2.565,0-4.645-2.08-4.645-4.645
				c0-2.565,2.079-4.645,4.645-4.645C168.918,327.629,170.998,329.709,170.998,332.274z"/>
		</g>
		<g>
			<path style="fill:#FFEA94;" d="M240.218,258.257c0,3.597-2.916,6.513-6.513,6.513s-6.513-2.916-6.513-6.513
				c0-3.597,2.916-6.513,6.513-6.513S240.218,254.66,240.218,258.257z"/>
			<path style="fill:#FFEA94;" d="M235.936,248.682c0,2.573,2.086,4.66,4.66,4.66c2.573,0,4.66-2.086,4.66-4.66
				c0-2.574-2.086-4.66-4.66-4.66C238.022,244.023,235.936,246.109,235.936,248.682z"/>
			<path style="fill:#FFEA94;" d="M215.434,335.484c0,2.426-1.967,4.393-4.393,4.393c-2.426,0-4.393-1.967-4.393-4.393
				c0-2.427,1.967-4.393,4.393-4.393C213.467,331.091,215.434,333.058,215.434,335.484z"/>
		</g>
		<g>
			<g>
				<path style="fill:#774407;" d="M267.089,241.094c-2.638,9.889-5.411,19.732-8.322,29.532c-2.88,9.809-5.886,19.578-8.916,29.341
					c-3.071,9.751-6.168,19.493-9.392,29.2c-1.599,4.857-3.239,9.704-4.892,14.547c-1.684,4.835-3.413,9.656-4.956,14.535
					c1.052-5.015,2.569-9.896,3.895-14.833c1.4-4.916,2.812-9.829,4.266-14.731c2.881-9.811,5.889-19.587,8.924-29.355
					c3.075-9.756,6.175-19.505,9.4-29.214C260.29,260.398,263.622,250.723,267.089,241.094z"/>
			</g>
			<g>
				<path style="fill:#774407;" d="M228.481,362.243c0.622,0.944,1.197,1.746,1.822,2.464c0.623,0.711,1.255,1.345,1.978,1.875
					c0.726,0.517,1.477,1.028,2.348,1.442c0.416,0.252,0.887,0.398,1.342,0.657c0.469,0.22,0.959,0.399,1.464,0.702
					c-0.528,0.196-1.078,0.309-1.638,0.388c-0.553,0.012-1.131,0.059-1.69-0.058c-1.136-0.148-2.239-0.648-3.191-1.345
					c-0.955-0.706-1.685-1.699-2.13-2.765C228.352,364.534,228.183,363.352,228.481,362.243z"/>
			</g>
		</g>
		<g>
			<g>
				<path style="fill:#774407;" d="M115.585,365.813c0.953,0.138,1.772,0.432,2.556,0.772c0.779,0.346,1.508,0.754,2.203,1.208
					c0.696,0.452,1.352,0.961,1.981,1.523c0.627,0.568,1.222,1.177,1.78,1.965c-0.965,0.055-1.848-0.156-2.679-0.443
					c-0.827-0.297-1.597-0.695-2.316-1.166c-0.718-0.472-1.382-1.021-1.985-1.647C116.53,367.391,115.98,366.695,115.585,365.813z"
					/>
			</g>
			<g>
				<g>
					<path style="fill:#774407;" d="M98.882,338.28c3.362,4.966,7.864,8.995,12.569,12.611c4.719,3.627,9.814,6.734,15.054,9.537
						c10.475,5.667,21.715,9.709,33.057,13.441c5.656,1.905,11.38,3.59,17.135,5.142c5.749,1.586,11.575,2.85,17.427,3.952
						c5.859,1.056,11.774,1.85,17.725,2.127c5.949,0.33,11.932,0.049,17.847-0.918c-5.817,1.468-11.86,1.979-17.874,2.02
						c-6.023-0.016-12.038-0.581-17.985-1.498c-11.908-1.82-23.565-4.95-34.976-8.69l-4.271-1.432l-4.242-1.512
						c-2.837-0.971-5.631-2.117-8.432-3.218c-1.41-0.53-2.768-1.187-4.147-1.794c-1.37-0.627-2.759-1.21-4.112-1.874
						c-2.693-1.356-5.404-2.671-7.997-4.215c-5.24-2.974-10.28-6.331-14.895-10.213c-1.124-1.006-2.295-1.953-3.357-3.025
						l-1.621-1.572l-1.547-1.645C102.227,343.273,100.297,340.93,98.882,338.28z"/>
				</g>
				<g>
					<path style="fill:#774407;" d="M243.59,376.186c0.284,0.666,0.272,1.316,0.155,1.922c-0.128,0.606-0.394,1.174-0.772,1.669
						c-0.37,0.499-0.885,0.907-1.466,1.179c-0.581,0.271-1.27,0.375-1.953,0.183c0.302-0.667,0.577-1.103,0.831-1.549
						c0.256-0.433,0.523-0.805,0.808-1.186c0.288-0.376,0.61-0.737,0.987-1.105C242.563,376.931,242.986,376.568,243.59,376.186z"/>
				</g>
			</g>
			<g>
				<g>
					<path style="fill:#774407;" d="M94.142,345.877c2.496,3.018,5.051,5.697,7.742,8.321c1.362,1.288,2.726,2.577,4.133,3.849
						c0.69,0.653,1.423,1.258,2.12,1.923c0.704,0.658,1.44,1.278,2.12,2.011c-0.938-0.305-1.845-0.684-2.738-1.096
						c-0.859-0.462-1.755-0.887-2.563-1.441c-1.676-1.028-3.205-2.28-4.636-3.632c-1.403-1.383-2.694-2.89-3.763-4.553
						C95.489,349.608,94.562,347.822,94.142,345.877z"/>
				</g>
				<g>
					<path style="fill:#774407;" d="M96.862,333.967c0.519,0.113,0.824,0.29,1.064,0.486c0.231,0.199,0.379,0.423,0.453,0.668
						c0.075,0.246,0.075,0.514-0.009,0.807c-0.093,0.296-0.251,0.611-0.627,0.991c-0.522-0.112-0.828-0.289-1.067-0.485
						c-0.231-0.199-0.379-0.423-0.45-0.669c-0.072-0.246-0.072-0.514,0.012-0.807C96.332,334.661,96.49,334.346,96.862,333.967z"/>
				</g>
			</g>
		</g>
		<g>
			<path style="fill:#FFD300;" d="M146.206,199.291c0,0-11.715-3.994-22.632-3.195s-17.041,6.657-23.697,19.437
				c-6.657,12.781-13.58,32.484-17.307,44.2c-3.728,11.716-8.52,35.147-3.728,44.466c4.793,9.319,18.905,19.704,22.366,21.567
				c3.461,1.864,9.319-2.13,11.982-8.254c2.663-6.124,3.461-13.846,2.13-15.177c-1.331-1.331-11.715-1.864-14.644-9.852
				c-2.929-7.988,2.662-29.822,7.189-43.667c4.526-13.846,8.52-24.496,15.976-23.431c7.455,1.065,9.852,2.396,9.852,2.396
				s11.982,1.065,15.443-8.254c3.462-9.319,0.799-14.112,0-16.242C148.336,201.154,147.955,199.829,146.206,199.291z"/>
			<path style="fill:#F29F05;" d="M150.221,215.984c0,0-16.604-6.638-27.463-3.913c-10.86,2.725-13.899,14.529-18.163,26.096
				c-4.264,11.568-15.214,50.1-7.732,57.511c7.481,7.411,18.723,8.944,18.723,8.944s0.863-3.268-4.127-3.699
				c-4.99-0.431-12.072-6.986-11.594-14.065c0.478-7.078,5.243-32.989,11.353-47.687c6.11-14.698,9.759-14.616,17.148-12.996
				c7.389,1.62,8.056,2.842,12.34,0.807C144.99,224.946,149.355,224.019,150.221,215.984z"/>
			<path style="fill:#AA6707;" d="M140.706,226.982c0,0-7.883-2.698-15.04-4.609c-7.157-1.912-11.955,3.754-16.403,15.558
				c-4.447,11.804-12.453,42.14-11.519,48.927c0.934,6.788,9.514,12.438,9.514,12.438s-8.797-4.469-7.169-14.72
				c1.628-10.251,8.85-44.376,14.461-52.003c5.611-7.627,7.309-7.798,12.04-6.745C131.322,226.88,135.754,230.198,140.706,226.982z"
				/>
			<g>
				<path style="fill:#FFEA94;" d="M134.595,196.616c0,0-13.707-2.632-21.507,2.579c-7.8,5.212-12.678,13.867-17.058,24.377
					c-4.38,10.51-10.105,23.132-13.461,36.16c-3.356,13.028-5.229,20.106-5.477,27.126c-0.248,7.02-0.969,14.162,2.744,19.084
					c3.713,4.922,2.316,0.341,0.664-5.506c-1.652-5.846-1.164-21.816,4.73-39.328c5.894-17.512,14.099-42.216,20.502-49.694
					c6.403-7.479,11.245-12.673,22.635-12.2C139.756,199.686,139.143,197.159,134.595,196.616z"/>
				<path style="fill:#FFEA94;" d="M90.729,309.03c1.654,1.986,2.172,4.28,1.158,5.125c-1.014,0.845-3.177-0.08-4.831-2.065
					c-1.654-1.986-2.172-4.28-1.158-5.125C86.912,306.12,89.075,307.044,90.729,309.03z"/>
				<circle style="fill:#FFEA94;" cx="84.387" cy="304.622" r="1.896"/>
				<path style="fill:#FFEA94;" d="M130.407,203.467c-0.162,0.96,1.497,2.04,3.706,2.413c2.209,0.373,4.13-0.103,4.292-1.063
					c0.162-0.96-1.497-2.04-3.706-2.413S130.569,202.508,130.407,203.467z"/>
			</g>
			<g>
				<path style="fill:#774407;" d="M124.106,201.446c-1.067-0.617-2.331-0.793-3.515-0.654c-1.199,0.135-2.315,0.617-3.355,1.196
					c-2.029,1.284-3.701,3.075-5.098,5.041c-2.859,3.91-4.844,8.389-6.74,12.879c-3.65,9.069-6.813,18.36-9.765,27.709
					c-1.517,4.663-2.916,9.363-4.299,14.066c-1.389,4.701-2.675,9.433-3.855,14.173c-0.284,1.187-0.578,2.374-0.797,3.562
					c-0.267,1.203-0.418,2.345-0.547,3.541c-0.17,2.446-0.305,4.888-0.349,7.33c-0.051,2.44-0.006,4.884,0.282,7.305
					c0.312,2.411,0.841,4.821,1.946,7.027c-0.652-1.044-1.169-2.173-1.596-3.338c-0.399-1.173-0.697-2.38-0.939-3.597
					c-0.462-2.438-0.678-4.914-0.796-7.386c-0.09-2.473-0.067-4.944-0.021-7.408c0.061-1.253,0.197-2.554,0.421-3.76
					c0.184-1.237,0.438-2.446,0.682-3.658c2.04-9.674,4.776-19.138,7.725-28.539c3.009-9.379,6.278-18.689,10.302-27.721
					c2.059-4.483,4.31-8.977,7.481-12.86c1.579-1.929,3.451-3.686,5.674-4.885c1.141-0.537,2.351-0.966,3.619-1.014
					C121.82,200.423,123.099,200.732,124.106,201.446z"/>
			</g>
			<g>
				<path style="fill:#774407;" d="M138.694,211.048c-0.76,0.351-1.491,0.472-2.21,0.524c-0.717,0.042-1.421-0.008-2.11-0.136
					c-0.689-0.127-1.364-0.34-2.017-0.642c-0.651-0.311-1.287-0.698-1.861-1.308c0.783-0.303,1.506-0.392,2.217-0.423
					c0.709-0.023,1.399,0.036,2.077,0.165c0.678,0.129,1.343,0.328,1.996,0.609C137.439,210.127,138.08,210.48,138.694,211.048z"/>
			</g>
			<g>
				<path style="fill:#774407;" d="M121.749,212.071c-0.987,0.492-1.726,1.071-2.445,1.663c-0.712,0.594-1.362,1.24-2.007,1.913
					l-1.968,2.084c-0.324,0.37-0.675,0.729-1.049,1.087c-0.366,0.365-0.73,0.738-1.191,1.078c0.013-0.56,0.122-1.086,0.23-1.621
					c0.139-0.519,0.332-1.02,0.535-1.519c0.469-0.964,1.049-1.895,1.832-2.676c0.761-0.791,1.687-1.466,2.745-1.877
					C119.473,211.811,120.694,211.622,121.749,212.071z"/>
			</g>
			<g>
				<path style="fill:#774407;" d="M146.206,199.291c-1.813-0.817-3.741-1.327-5.671-1.751c-1.934-0.421-3.896-0.699-5.863-0.881
					c-3.933-0.362-7.909-0.329-11.821,0.058c-3.875,0.385-7.728,1.4-10.929,3.544l-1.182,0.821
					c-0.387,0.283-0.735,0.618-1.104,0.924c-0.757,0.592-1.378,1.341-2.058,2.017c-1.252,1.468-2.424,3.014-3.415,4.695
					c-4.005,6.696-6.682,14.237-9.789,21.54c-3.031,7.334-5.993,14.682-8.457,22.193c-1.251,3.748-2.405,7.527-3.432,11.34
					c-1.015,3.816-1.892,7.667-2.682,11.536c-0.761,3.878-1.449,7.769-1.875,11.672c-0.406,3.897-0.584,7.825-0.024,11.637
					c0.327,1.892,0.846,3.74,1.614,5.49c0.81,1.731,1.87,3.341,3.093,4.839c1.242,1.489,2.66,2.824,4.11,4.196l4.355,4.054
					c2.914,2.684,5.86,5.342,9.123,7.565c0.839,0.537,1.602,1.168,2.538,1.285c0.929,0.15,1.901-0.062,2.794-0.434
					c1.799-0.76,3.372-2.05,4.725-3.491c-1.274,1.517-2.766,2.904-4.588,3.802c-0.911,0.43-1.943,0.709-2.997,0.587l-0.774-0.165
					l-0.725-0.321c-0.453-0.24-0.87-0.5-1.298-0.763c-3.405-2.114-6.492-4.672-9.531-7.241c-1.512-1.297-2.996-2.622-4.48-3.947
					c-1.469-1.319-2.988-2.674-4.334-4.205c-1.33-1.544-2.514-3.24-3.438-5.09c-0.882-1.87-1.494-3.852-1.894-5.866
					c-0.714-4.047-0.611-8.133-0.232-12.128c0.383-4.003,1.029-7.953,1.745-11.881c1.5-7.854,3.552-15.601,6.073-23.182
					c2.532-7.579,5.525-14.981,8.631-22.303l4.719-10.961c1.616-3.65,3.368-7.277,5.573-10.679c1.074-1.715,2.349-3.318,3.715-4.834
					c0.743-0.707,1.422-1.476,2.248-2.094c0.403-0.317,0.784-0.663,1.206-0.956l1.288-0.847c3.493-2.203,7.594-3.173,11.598-3.443
					c4.008-0.226,8.014-0.088,11.976,0.445C138.685,196.607,142.641,197.505,146.206,199.291z"/>
			</g>
			<g>
				<path style="fill:#774407;" d="M100.675,292.483c1.009,0.966,2.028,1.861,3.046,2.725c1.029,0.853,2.082,1.64,3.166,2.344
					c1.088,0.7,2.217,1.284,3.378,1.753c1.167,0.464,2.377,0.721,3.615,0.886l-0.209,0.015c0.319-0.036,0.416-0.001,0.596,0.027
					c0.154,0.037,0.302,0.084,0.431,0.15c0.265,0.124,0.485,0.29,0.653,0.471c0.345,0.363,0.538,0.751,0.676,1.119
					c0.28,0.74,0.347,1.445,0.348,2.13c0.021,0.685-0.052,1.35-0.158,2.003c-0.098,0.654-0.266,1.293-0.452,1.922l-0.316-1.921
					c-0.042-0.316-0.102-0.627-0.173-0.932c-0.06-0.308-0.12-0.609-0.202-0.902c-0.156-0.584-0.347-1.153-0.601-1.582
					c-0.125-0.214-0.274-0.383-0.399-0.458c-0.061-0.042-0.11-0.063-0.139-0.062c-0.016-0.006-0.026,0.003-0.026,0.003
					c0.022,0.002-0.042,0.021,0.117,0.004l-0.21,0.015c-1.482-0.018-2.98-0.253-4.358-0.794c-1.367-0.551-2.649-1.279-3.772-2.183
					c-1.116-0.91-2.108-1.943-2.956-3.071C101.879,295.023,101.158,293.801,100.675,292.483z"/>
			</g>
			<g>
				<path style="fill:#774407;" d="M113.847,233.463c1.085-2.495,2.553-4.83,4.597-6.799c0.254-0.248,0.54-0.473,0.812-0.711
					c0.282-0.23,0.609-0.421,0.914-0.632c0.333-0.186,0.682-0.361,1.043-0.521c0.403-0.107,0.763-0.292,1.215-0.312
					c0.22-0.02,0.442-0.042,0.663-0.048c0.206,0,0.364,0.024,0.548,0.035c0.36,0.023,0.706,0.073,1.056,0.116
					c0.696,0.094,1.378,0.218,2.054,0.355c1.341,0.314,2.654,0.679,3.945,1.086l3.718,1.261c2.332,0.723,4.928-0.178,7.541-0.879
					c-1.098,0.808-2.282,1.482-3.568,2.031c-0.649,0.258-1.334,0.472-2.072,0.585c-0.751,0.125-1.507,0.055-2.202-0.009
					c-0.805-0.118-1.4-0.281-2.068-0.452l-1.941-0.492c-1.283-0.338-2.557-0.673-3.833-0.936c-0.633-0.145-1.267-0.278-1.896-0.379
					c-0.314-0.046-0.63-0.101-0.938-0.128c-0.149-0.013-0.324-0.042-0.452-0.042c-0.113,0.012-0.226,0.009-0.34,0.008
					c-0.955,0.011-2.063,0.694-3.076,1.405C117.531,229.525,115.696,231.489,113.847,233.463z"/>
			</g>
			<g>
				<path style="fill:#774407;" d="M150.221,205.85c0.855,0.975,1.298,2.207,1.578,3.428c0.266,1.233,0.319,2.499,0.218,3.744
					c-0.107,1.245-0.388,2.467-0.817,3.63c-0.436,1.162-1.026,2.267-1.847,3.245c-0.056-0.651-0.01-1.255,0.011-1.859
					c0.007-0.607,0.077-1.19,0.111-1.775l0.302-3.436l0.265-3.407C150.114,208.27,150.19,207.119,150.221,205.85z"/>
			</g>
		</g>
		<path style="fill:#FFEA94;" d="M212.872,226.982c0,0-26.731,76.065-32.72,95.412c-5.989,19.347-0.254,23.482-0.254,23.482
			l36.581-108.772C216.479,237.105,218.455,229.572,212.872,226.982z"/>
		<path style="fill:#F29F05;" d="M256.818,246.571c0,0-1.616-6.319-3.841-5.477c-2.225,0.842-33.243,102.919-34.481,108.103
			c-1.238,5.184,1.731,9.454,1.731,9.454L256.818,246.571z"/>
		<path style="fill:#F29F05;" d="M168.671,224.246c0,0-30.017,95.373-31.785,103.384c-1.768,8.01,1.807,8.817,1.807,8.817
			l35.47-113.398L168.671,224.246z"/>
		<g>
			<g>
				<path style="fill:#774407;" d="M174.163,223.048c-2.631,9.865-5.398,19.688-8.302,29.468
					c-2.874,9.789-5.874,19.539-8.897,29.282c-3.064,9.73-6.155,19.451-9.371,29.134c-3.186,9.692-6.511,19.34-9.973,28.945
					c2.628-9.866,5.393-19.69,8.298-29.469c2.875-9.789,5.874-19.539,8.901-29.281c3.067-9.729,6.158-19.451,9.374-29.133
					C167.38,242.303,170.703,232.654,174.163,223.048z"/>
			</g>
			<g>
				<path style="fill:#774407;" d="M107.331,329.759c1.665,1.433,2.893,2.886,4.177,4.295l1.929,2.08
					c0.664,0.694,1.361,1.343,2.148,2.145c-1.106,0.083-2.212-0.218-3.189-0.716c-0.965-0.516-1.835-1.203-2.556-2.002
					c-0.716-0.805-1.308-1.705-1.751-2.674C107.658,331.915,107.338,330.879,107.331,329.759z"/>
			</g>
			<g>
				<path style="fill:#774407;" d="M121.443,341.741c2.578,0.456,4.845,1.03,7.104,1.207c1.123,0.073,2.212,0.052,3.321-0.113
					c1.115-0.175,2.174-0.592,3.421-1.094c-0.583,1.172-1.602,2.193-2.873,2.775c-1.268,0.567-2.686,0.772-4.042,0.673
					c-1.358-0.105-2.651-0.502-3.831-1.073C123.373,343.528,122.28,342.78,121.443,341.741z"/>
			</g>
		</g>
		<g>
			<g>
				<path style="fill:#774407;" d="M187.21,221.124c-2.833,10.146-5.803,20.252-8.91,30.315c-3.077,10.073-6.28,20.105-9.506,30.129
					c-3.266,10.01-6.559,20.011-9.975,29.966c-1.695,4.982-3.43,9.949-5.177,14.911l-2.673,7.423
					c-0.457,1.233-0.864,2.483-1.363,3.701l-1.537,3.64c1.699-4.986,3.042-10.091,4.538-15.144
					c1.499-5.051,3.01-10.096,4.561-15.126c3.077-10.07,6.276-20.094,9.503-30.109c3.266-10.001,6.556-19.993,9.971-29.946
					C180.028,240.922,183.55,231.003,187.21,221.124z"/>
			</g>
			<g>
				<path style="fill:#774407;" d="M148.07,344.108c0.537,0.412,0.887,0.8,1.189,1.189c0.296,0.388,0.523,0.772,0.714,1.158
					c0.194,0.383,0.338,0.772,0.467,1.201c0.136,0.428,0.247,0.876,0.427,1.541c-0.669,0.14-1.299-0.089-1.8-0.428
					c-0.492-0.351-0.863-0.82-1.113-1.327c-0.248-0.509-0.372-1.06-0.376-1.621C147.585,345.259,147.69,344.679,148.07,344.108z"/>
			</g>
			<g>
				<path style="fill:#774407;" d="M152.596,351.593c1.653,1.163,3.292,2.182,4.982,3.068c1.694,0.873,3.436,1.581,5.225,2.095
					c1.786,0.522,3.623,0.876,5.513,0.985c0.947,0.107,1.898,0.068,2.873,0.078c0.978,0.024,1.941-0.132,2.975-0.102
					c-1.775,0.943-3.756,1.631-5.82,1.778c-2.058,0.251-4.177,0.001-6.173-0.583c-2-0.584-3.897-1.518-5.528-2.776
					C155.006,354.898,153.561,353.386,152.596,351.593z"/>
			</g>
			<g>
				<path style="fill:#774407;" d="M178.423,350.262c2.928-10.068,5.991-20.09,9.19-30.067c3.169-9.986,6.463-19.931,9.782-29.868
					c3.358-9.923,6.743-19.837,10.252-29.71c3.479-9.883,7.096-19.718,10.85-29.509c-2.925,10.069-5.986,20.092-9.187,30.068
					c-3.17,9.986-6.464,19.931-9.785,29.867c-3.361,9.922-6.745,19.836-10.255,29.709
					C185.79,330.634,182.175,340.471,178.423,350.262z"/>
			</g>
		</g>
		<g>
			<g>
				<path style="fill:#774407;" d="M227.192,232.574c-3.434,11.458-7.004,22.874-10.711,34.244
					c-3.677,11.38-7.478,22.719-11.304,34.048c-3.865,11.315-7.757,22.621-11.771,33.88l-3.016,8.442l-1.528,4.213l-0.764,2.107
					l-0.376,1.046c-0.099,0.329-0.235,0.646-0.289,0.992c-0.603,2.736,0.203,5.806,2.062,8.031c1.857,2.264,4.657,3.627,7.565,4.263
					c-1.468-0.25-2.957-0.558-4.329-1.214c-1.367-0.646-2.642-1.529-3.686-2.659c-2.094-2.249-3.196-5.476-2.694-8.633
					c0.039-0.398,0.18-0.781,0.285-1.171l0.339-1.078l0.678-2.138l1.356-4.276l2.752-8.536c3.677-11.378,7.476-22.709,11.301-34.032
					c3.865-11.308,7.754-22.607,11.768-33.864C218.815,254.974,222.936,243.753,227.192,232.574z"/>
			</g>
			<g>
				<path style="fill:#774407;" d="M210.941,366.237c1.368,0.426,2.873,0.108,4.024-0.655c1.184-0.737,2.109-1.821,2.869-2.986
					l0.547-0.894l0.471-0.94c0.335-0.614,0.559-1.288,0.833-1.931c0.485-1.326,0.922-2.675,1.354-4.03l5.14-16.308
					c3.403-10.883,6.882-21.743,10.376-32.599c3.531-10.844,7.074-21.684,10.734-32.486c3.63-10.813,7.39-21.583,11.278-32.314
					c-3.055,10.997-6.257,21.948-9.607,32.851c-3.32,10.913-6.773,21.784-10.267,32.642c-3.538,10.844-7.109,21.677-10.854,32.455
					c-1.866,5.392-3.763,10.771-5.766,16.122c-0.514,1.334-1.036,2.672-1.609,3.992c-0.322,0.65-0.592,1.321-0.977,1.941
					l-0.544,0.942l-0.623,0.896c-0.863,1.163-1.895,2.246-3.19,2.942C213.861,366.582,212.269,366.774,210.941,366.237z"/>
			</g>
		</g>
		<g>
			<path style="fill:#FEFDFF;" d="M156.324,156.955c-6.099,0.553-15.443,3.728-19.437,10.384c-3.994,6.657-6.304,13.338-2.13,16.242
				s12.514-2.13,18.638-4.26c6.124-2.13,9.319,5.858,8.521,10.917c-0.799,5.059-14.378,29.555,3.195,33.549
				c17.573,3.994,16.775-18.905,17.041-22.899c0.266-3.994,1.984-11.716,6.85-11.716c4.866,0,1.405,13.579,8.594,11.982
				c7.189-1.598,5.858-6.39,5.858-9.053c0-2.663,4.793-9.053,10.651-3.728c5.858,5.325,1.065,11.449,5.591,12.248
				c4.527,0.799,7.722-7.721,15.443-2.663c7.722,5.059-2.929,9.319-5.059,17.573c-2.13,8.254,1.864,16.242,9.852,15.443
				c7.988-0.799,10.384-8.254,14.378-14.378c3.994-6.124,8.254-7.189,10.917-3.728c2.663,3.461-1.598,9.319,6.124,9.585
				c7.722,0.266,4.526-5.059,10.384-3.461c5.858,1.598,6.667,6.532,5.582,10.782c-1.085,4.25-5.837,22.238-5.837,22.238
				s2.385,11.18,12.769,5.322c10.384-5.858,18.372-23.697,17.84-29.821c-0.533-6.124-5.858-14.012-5.858-19.52
				c0-5.508-1.065-8.116,10.118-12.004c11.183-3.888,4.26-18.266-11.449-18c-15.709,0.266-22.898,0.799-23.964-5.325
				c-1.065-6.124-2.13-16.508-20.502-12.248c-18.372,4.26-15.177,1.864-21.301-3.461c-6.124-5.325-17.307-8.254-31.685-3.994
				c-14.378,4.26-16.775,1.775-21.301-2.041c-4.526-3.816-15.976-0.089-20.768,2.84
				C160.584,156.689,159.384,156.677,156.324,156.955z"/>
			<g>
				<path style="fill:#774407;" d="M163.779,165.209c-1.551,0.997-3.049,1.977-4.268,3.09c-0.579,0.575-1.066,1.186-1.278,1.773
					c-0.197,0.585-0.204,1.096,0.11,1.691c0.301,0.578,0.672,1.003,1.193,1.164c0.532,0.186,1.294,0.13,2.076-0.072
					c1.57-0.428,3.181-1.231,4.828-2.054c-1.052,1.535-2.435,2.83-4.223,3.701c-0.882,0.436-1.977,0.742-3.202,0.493
					c-0.593-0.134-1.205-0.425-1.652-0.851c-0.116-0.103-0.245-0.204-0.341-0.317l-0.255-0.356
					c-0.153-0.248-0.365-0.465-0.456-0.747c-0.55-1.001-0.568-2.465-0.028-3.505c0.524-1.056,1.333-1.771,2.158-2.303
					C160.112,165.881,161.922,165.334,163.779,165.209z"/>
			</g>
			<g>
				<path style="fill:#774407;" d="M184.015,166.54c1.427-0.599,2.938-1.012,4.484-1.263c1.545-0.255,3.139-0.322,4.733-0.125
					c1.59,0.193,3.18,0.747,4.583,1.517c1.419,0.76,2.689,1.712,3.931,2.63c2.472,1.841,4.866,3.672,7.631,4.424
					c1.381,0.374,2.764,0.58,4.211,0.491c1.47-0.076,2.989-0.267,4.512-0.457c3.055-0.356,6.155-0.722,9.283-0.85
					c3.127-0.087,6.292-0.023,9.405,0.527c3.111,0.512,6.175,1.464,8.959,2.943c2.789,1.469,5.256,3.492,7.229,5.87
					c-2.332-2.029-4.897-3.736-7.703-4.873c-1.39-0.589-2.822-1.073-4.289-1.414c-1.462-0.352-2.941-0.638-4.441-0.79
					c-6.007-0.675-12.068,0.03-18.175,0.817c-1.538,0.173-3.083,0.353-4.693,0.418c-1.633,0.075-3.347-0.155-4.917-0.653
					c-3.201-1.019-5.773-3.107-8.095-5.082c-2.349-1.96-4.689-3.861-7.617-4.438c-1.446-0.337-2.966-0.407-4.484-0.341
					C187.044,165.968,185.513,166.166,184.015,166.54z"/>
			</g>
			<g>
				<path style="fill:#774407;" d="M187.21,183.315c-3.274,2.109-5.675,5.248-6.764,8.733c-0.28,0.871-0.449,1.771-0.596,2.669
					l-0.143,1.362l-0.096,1.464c-0.156,1.951-0.394,3.9-0.698,5.848c-0.715,3.851-1.609,7.843-4.049,11.254
					c-0.616,0.836-1.365,1.611-2.249,2.219c-0.941,0.58-1.881,0.95-2.875,1.204c-1,0.222-2.046,0.335-3.059,0.143
					c-1.003-0.176-1.976-0.617-2.637-1.348c1.68,1.053,3.697,0.838,5.363,0.152c0.851-0.34,1.68-0.806,2.327-1.334
					c0.644-0.583,1.221-1.251,1.68-2.027c0.932-1.534,1.587-3.293,2.081-5.097c0.515-1.802,0.906-3.66,1.201-5.541
					c0.336-1.875,0.575-3.774,0.801-5.68l0.172-1.43l0.243-1.519c0.205-1.005,0.486-1.997,0.891-2.94
					C180.345,187.644,183.503,184.583,187.21,183.315z"/>
			</g>
			<g>
				<path style="fill:#774407;" d="M276.408,198.758c1.709-0.493,3.506-0.548,5.264-0.376c1.766,0.159,3.507,0.611,5.162,1.28
					c1.658,0.659,3.226,1.575,4.581,2.74c1.396,1.107,2.524,2.537,3.365,4.078c-1.535-0.909-2.884-1.868-4.36-2.633
					c-0.71-0.417-1.469-0.743-2.186-1.128c-0.755-0.319-1.479-0.692-2.247-0.974c-1.51-0.619-3.059-1.157-4.651-1.647
					C279.74,199.622,278.118,199.197,276.408,198.758z"/>
			</g>
			<g>
				<path style="fill:#774407;" d="M215.04,151.312c1.911-0.648,3.918-1.01,5.95-1.184c2.033-0.154,4.111-0.103,6.165,0.333
					c1.034,0.192,2.056,0.537,2.976,0.846c0.95,0.318,1.904,0.632,2.864,0.98c1.91,0.698,3.85,1.62,5.567,2.863
					c1.702,1.26,3.172,2.734,4.518,4.266c1.312,1.552,2.577,3.046,3.889,4.516c1.332,1.43,2.702,2.817,4.333,3.827
					c0.808,0.516,1.685,0.922,2.61,1.242c0.931,0.296,1.906,0.496,2.905,0.637c-1.001,0.097-2.023,0.108-3.046-0.03
					c-1.02-0.151-2.024-0.459-2.986-0.874c-1.916-0.867-3.564-2.184-5.059-3.565c-3.025-2.766-5.395-6.024-8.484-8.202
					c-1.506-1.139-3.205-1.961-5.02-2.704c-0.901-0.381-1.831-0.743-2.759-1.109c-0.96-0.366-1.812-0.738-2.728-0.997
					c-1.829-0.535-3.768-0.827-5.732-0.931C219.036,151.093,217.045,151.15,215.04,151.312z"/>
			</g>
			<path style="fill:#EDECC8;" d="M133.165,175.272c0,0-4.046,10.91,5.529,9.156c9.575-1.754,15.9-8.535,20.427-2.179
				c4.526,6.356,1.194,11.784-0.436,17.443c-1.63,5.66-7.843,17.337,3.024,22.884c10.867,5.548,17.972-0.785,19.147-9.704
				c1.175-8.92,1.359-20.497,6.354-22.821c4.996-2.324,1.599,6.828,7.128,10.395c5.529,3.566,10.322-2.159,9.148-7.439
				c-1.174-5.28,7.697-9.428,10.617-4.634c2.92,4.794-0.73,8.452,3.186,11.592c3.916,3.14,9.408-3.009,11.167-3.311
				c1.758-0.302,6.972,0.562,9.197,3.946c2.225,3.384-5.692,8.127-7.574,14.932c-1.882,6.805-0.295,12.848,5.851,15.039
				c6.146,2.191,11.892-1.454,14.95-8.199c3.058-6.745,8.71-16.253,16.21-15.893c7.499,0.361,7.564,5.592,7.564,5.592
				s-0.628-12.3-13.198-11.292c-12.57,1.008-13.821,13.803-18.139,15.204c-4.318,1.402-8.529-1.255-4.446-8.385
				c4.083-7.13,1.19-15.478-6.81-15.478c-8,0-9.98,3.481-10.857,1.96c-0.878-1.521-2.027-10.939-7.823-11.832
				c-5.796-0.893-11.069,1.419-13.046,3.998c-1.977,2.579-0.454,7.817-1.875,7.834c-1.421,0.017-3.018-8.551-6.283-8.99
				c-3.266-0.439-7.659,0.255-9.197,4.961c-1.538,4.705-3.06,25.38-7.352,27.455c-4.292,2.075-13.734,3.021-13.407-6.459
				c0.327-9.48,6.576-21.391,4.221-26.859c-2.355-5.468-10.037-12.365-18.059-8.916C140.36,178.721,133.658,178.634,133.165,175.272
				z"/>
			<path style="fill:#EDECC8;" d="M266.155,215.266c0,0-1.15,6.944,3.335,6.976c4.486,0.033,4.783,0.606,8.345-2.345
				c3.563-2.951,7.892,0.99,9.462,3.962c1.569,2.972-5.82,28.154-5.82,28.154s0.402,7.825,8.509,6.919
				c8.107-0.906,13.754-9.729,16.425-14.91c2.671-5.181,5.827-9.235,5.674-16.508c-0.153-7.273-5.668-12.386-5.732-18.028
				c0,0,0.746,24.701-4.966,32.117c-5.712,7.417-10.39,1.106-7.831-9.03c2.558-10.136-1.381-20.104-9.297-20.502
				c-7.916-0.398-7.477,4.67-10.992,4.663c-3.515-0.008-5.838-5.251-9.684-5.32C263.586,211.414,265.192,213.366,266.155,215.266z"
				/>
			<path style="fill:#EDECC8;" d="M268.437,181.043c4.137-1.546,10.78,3.199,15.825,1.207c5.045-1.992,13.365-2.431,14.353,1.065
				c1.075,3.804-0.478,8.186-8.627,7.727c-8.15-0.458-11.312-0.42-20.605,0C260.089,191.462,259.869,184.243,268.437,181.043z"/>
			<g>
				<path style="fill:#774407;" d="M135.16,184.419c1.446,0.092,2.893-0.049,4.305-0.302c1.418-0.252,2.801-0.62,4.108-1.198
					c2.637-1.128,5.16-2.597,8.033-3.454c1.43-0.394,3.006-0.673,4.602-0.255c1.592,0.445,2.891,1.537,3.787,2.802
					c1.806,2.552,2.533,5.713,2.205,8.805c-0.09,0.767-0.264,1.561-0.487,2.281c-0.22,0.712-0.458,1.402-0.695,2.093l-1.457,4.086
					c-0.946,2.714-1.823,5.443-2.435,8.198c-0.552,2.72-0.986,5.613-0.234,8.003c0.841,2.487,2.623,4.626,4.891,6.013
					c2.255,1.41,4.967,2.147,7.647,2.076c2.689-0.083,5.395-0.818,7.156-2.69c1.823-1.835,2.747-4.541,3.328-7.255
					c0.542-2.73,0.733-5.643,1.131-8.527c0.376-2.883,0.783-5.79,1.607-8.65c0.41-1.426,0.961-2.849,1.803-4.153
					c0.83-1.288,2.111-2.476,3.739-2.813c0.394-0.1,0.891-0.12,1.371,0.053c0.494,0.181,0.851,0.615,1.017,0.998
					c0.348,0.785,0.418,1.527,0.521,2.253c0.174,1.445,0.307,2.865,0.781,4.189c0.456,1.319,1.306,2.502,2.511,3.25
					c1.196,0.757,2.629,1.128,4.064,1.282c-1.442-0.043-2.916-0.294-4.237-0.989c-1.319-0.703-2.327-1.944-2.894-3.326
					c-0.587-1.383-0.81-2.866-1.065-4.276c-0.132-0.695-0.271-1.411-0.55-1.937c-0.285-0.527-0.648-0.582-1.268-0.423
					c-1.239,0.324-2.225,1.279-2.9,2.429c-0.682,1.159-1.145,2.485-1.473,3.853c-0.665,2.738-1.008,5.593-1.284,8.457
					c-0.301,2.86-0.402,5.748-0.941,8.711c-0.292,1.468-0.668,2.934-1.235,4.366c-0.583,1.423-1.384,2.815-2.496,3.989
					c-1.1,1.185-2.537,2.067-4.038,2.584c-1.51,0.525-3.032,0.764-4.592,0.822c-3.107,0.095-6.229-0.72-8.891-2.364
					c-2.656-1.646-4.792-4.213-5.787-7.23c-0.54-1.599-0.519-3.182-0.451-4.708c0.078-1.535,0.384-2.999,0.698-4.455
					c0.696-2.887,1.649-5.663,2.657-8.396l1.541-4.064c0.253-0.671,0.508-1.342,0.735-2.006c0.224-0.657,0.376-1.276,0.479-1.944
					c0.382-2.642-0.22-5.507-1.672-7.742c-0.721-1.12-1.746-2.018-2.942-2.41c-1.211-0.387-2.618-0.223-3.969,0.08
					c-2.739,0.641-5.353,1.952-8.095,2.946C141.016,184.466,138.036,184.779,135.16,184.419z"/>
			</g>
			<g>
				<path style="fill:#774407;" d="M209.226,186.332c1.534,0.135,3.087,0.594,4.349,1.567c0.623,0.49,1.154,1.123,1.456,1.887
					c0.292,0.758,0.398,1.552,0.467,2.331c0.134,1.559,0.092,3.116,0.336,4.596c0.12,0.734,0.331,1.449,0.711,2.014
					c0.368,0.587,0.952,0.886,1.648,1.128c1.35,0.488,2.806,0.251,4.117-0.374c1.343-0.615,2.511-1.516,3.793-2.476
					c1.447-0.978,3.168-1.301,4.824-1.243c1.662,0.072,3.324,0.559,4.745,1.498c1.422,0.956,2.554,2.295,3.137,4.009
					c0.289,0.869,0.277,1.961-0.108,2.834c-0.366,0.88-0.919,1.553-1.458,2.162c-1.097,1.2-2.214,2.222-3.19,3.35
					c-0.985,1.114-1.845,2.305-2.509,3.602c-1.329,2.565-1.852,5.555-1.499,8.405c0.352,2.807,1.661,5.648,3.983,6.87
					c0.526,0.276,1.315,0.557,1.987,0.787c0.696,0.231,1.391,0.42,2.083,0.541c1.384,0.25,2.751,0.176,4.026-0.268
					c2.567-0.906,4.651-3.15,6.366-5.558c0.864-1.208,1.626-2.513,2.465-3.855c0.84-1.321,1.695-2.636,2.642-3.911
					c0.944-1.274,1.938-2.535,3.181-3.661c0.636-0.549,1.3-1.096,2.109-1.501c0.796-0.41,1.701-0.686,2.602-0.766
					c0.449-0.033,0.89-0.04,1.317-0.01c0.219,0.004,0.419,0.038,0.63,0.057l0.323,0.038l0.41,0.083
					c0.558,0.139,1.171,0.532,1.517,1.049c0.351,0.51,0.489,1.024,0.575,1.478c0.16,0.917,0.143,1.716,0.155,2.492
					c0.008,0.769,0.015,1.51,0.101,2.205c0.148,1.409,0.669,2.556,1.72,3.216c0.129,0.086,0.274,0.154,0.409,0.235l0.486,0.215
					c0.323,0.157,0.654,0.26,0.984,0.375c0.661,0.2,1.334,0.344,1.994,0.322c1.326,0.003,2.576-0.557,3.699-1.467
					c0.283-0.226,0.562-0.465,0.844-0.719l0.428-0.387l0.223-0.201c0.096-0.077,0.189-0.164,0.289-0.23
					c0.793-0.564,1.678-0.817,2.554-0.906c1.758-0.177,3.522,0.401,4.869,1.45c1.361,1.048,2.287,2.511,2.882,4.021l0.026,0.065
					l0.006,0.033c0.215,1.243,0.188,2.348,0.124,3.504c-0.075,1.141-0.228,2.269-0.457,3.379c-0.232,1.109-0.505,2.21-0.921,3.245
					l-0.573,1.576c-0.092,0.263-0.196,0.524-0.304,0.784l-0.16,0.39l-0.041,0.098c-0.014,0.025,0.001,0.013-0.036,0.068
					c-0.089,0.038-0.039-0.077-0.043-0.062l0.075-0.197l-0.02,0.209c-0.101,0.011-0.04-0.076-0.044-0.145l0.05-0.417
					c0.031-0.279,0.065-0.557,0.109-0.833l0.246-1.658c0.13-1.121,0.405-2.177,0.575-3.257c0.176-1.077,0.302-2.161,0.339-3.242
					c0.037-1.063,0.007-2.2-0.185-3.147l0.031,0.098c-0.572-1.34-1.413-2.557-2.538-3.371c-1.112-0.817-2.514-1.216-3.84-1.043
					c-0.655,0.081-1.297,0.308-1.757,0.66c-0.062,0.041-0.106,0.092-0.161,0.135l-0.203,0.193l-0.421,0.403
					c-0.285,0.272-0.586,0.545-0.9,0.811c-1.231,1.073-2.925,1.938-4.719,1.976c-0.89,0.049-1.756-0.11-2.577-0.335
					c-0.406-0.124-0.815-0.248-1.192-0.424l-0.578-0.247c-0.201-0.11-0.407-0.208-0.602-0.333c-0.783-0.49-1.483-1.212-1.905-2.045
					c-0.439-0.829-0.648-1.707-0.759-2.543c-0.229-1.654-0.068-3.305-0.301-4.558c-0.057-0.302-0.153-0.546-0.249-0.673
					c-0.098-0.123-0.174-0.171-0.364-0.227l-0.159-0.028l-0.254-0.025c-0.175-0.012-0.358-0.042-0.526-0.04
					c-0.346-0.02-0.677-0.006-1,0.02c-2.533,0.245-4.579,2.73-6.333,5.11c-0.893,1.212-1.719,2.497-2.533,3.789
					c-0.795,1.283-1.587,2.657-2.516,3.971c-0.919,1.31-1.945,2.574-3.16,3.7c-1.219,1.112-2.643,2.107-4.303,2.671
					c-1.652,0.575-3.477,0.647-5.13,0.335c-0.831-0.149-1.631-0.373-2.401-0.633c-0.786-0.281-1.466-0.505-2.314-0.94
					c-1.6-0.856-2.811-2.241-3.607-3.744c-0.809-1.51-1.247-3.155-1.438-4.8c-0.358-3.295,0.287-6.66,1.843-9.571
					c0.768-1.448,1.755-2.769,2.835-3.955c1.077-1.188,2.281-2.225,3.297-3.283c0.501-0.529,0.945-1.073,1.187-1.622
					c0.249-0.546,0.272-1.095,0.106-1.701c-0.375-1.233-1.283-2.438-2.411-3.22c-1.141-0.803-2.541-1.265-3.963-1.365
					c-1.414-0.095-2.898,0.164-4.046,0.903c-1.213,0.857-2.54,1.831-4.039,2.465c-1.482,0.656-3.329,0.868-4.896,0.21
					c-0.391-0.162-0.749-0.323-1.129-0.583c-0.365-0.26-0.666-0.602-0.892-0.972c-0.451-0.747-0.634-1.568-0.73-2.358
					c-0.186-1.59-0.069-3.14-0.132-4.667c-0.031-0.76-0.103-1.522-0.337-2.222c-0.239-0.689-0.7-1.312-1.258-1.812
					C212.254,187.117,210.747,186.557,209.226,186.332z"/>
			</g>
		</g>
		<g>
			<path style="fill:#774407;" d="M245.255,162.299c4.58-0.014,9.061-0.869,13.466-2.032c2.221-0.538,4.461-1.075,6.778-1.389
				c2.306-0.327,4.728-0.373,7.113,0.21c1.173,0.333,2.358,0.753,3.395,1.445c0.553,0.292,0.998,0.733,1.499,1.098
				c0.429,0.459,0.935,0.855,1.289,1.383c1.608,2.004,2.213,4.523,2.634,6.758c0.424,2.246,0.788,4.452,2.216,5.489l0.257,0.206
				c0.095,0.059,0.205,0.101,0.305,0.154c0.219,0.092,0.378,0.227,0.64,0.294l0.73,0.242c0.25,0.071,0.513,0.12,0.768,0.182
				c1.032,0.232,2.122,0.348,3.224,0.415c4.432,0.296,8.983-0.191,13.663-0.036c0.587,0.025,1.179,0.07,1.774,0.13
				c0.605,0.073,1.199,0.152,1.748,0.247c1.127,0.182,2.269,0.358,3.416,0.594c2.285,0.446,4.616,1.133,6.717,2.376
				c1.051,0.62,2.006,1.411,2.848,2.306c0.792,0.935,1.515,1.948,1.968,3.075c0.268,0.547,0.45,1.12,0.616,1.697
				c0.183,0.565,0.327,1.169,0.384,1.788c0.152,1.228-0.052,2.562-0.685,3.668c-0.642,1.102-1.605,1.913-2.615,2.528
				c-1.02,0.611-2.099,1.06-3.188,1.442c-1.088,0.385-2.19,0.7-3.281,1.033c-1.083,0.338-2.21,0.617-3.142,1.287
				c0.866-0.765,1.983-1.165,3.03-1.608c1.066-0.42,2.138-0.81,3.174-1.267c2.036-0.892,4.133-2.063,5.049-3.934
				c0.443-0.919,0.56-1.954,0.377-2.983c-0.074-0.515-0.223-1.023-0.421-1.533c-0.178-0.514-0.367-1.02-0.631-1.488
				c-0.456-0.974-1.114-1.818-1.82-2.596c-0.755-0.738-1.595-1.386-2.536-1.893c-1.884-1.01-4.02-1.577-6.213-1.963
				c-1.096-0.2-2.216-0.346-3.348-0.502c-0.579-0.086-1.119-0.142-1.649-0.194c-0.542-0.041-1.091-0.071-1.645-0.081
				c-4.456-0.093-9.038,0.419-13.738,0.15c-1.177-0.081-2.365-0.213-3.561-0.49c-0.299-0.074-0.598-0.135-0.896-0.222l-0.894-0.303
				c-0.293-0.079-0.61-0.283-0.911-0.425c-0.151-0.082-0.306-0.152-0.451-0.245l-0.417-0.323c-1.128-0.863-1.821-2.155-2.196-3.346
				c-0.392-1.209-0.56-2.372-0.755-3.487c-0.365-2.227-0.855-4.317-2.104-5.945c-0.268-0.438-0.682-0.756-1.014-1.145
				c-0.417-0.311-0.783-0.698-1.237-0.957c-0.844-0.62-1.832-1.004-2.834-1.336c-2.045-0.593-4.272-0.632-6.494-0.438
				c-2.228,0.178-4.464,0.599-6.711,1.003c-2.245,0.403-4.532,0.773-6.82,0.963C249.841,162.495,247.531,162.571,245.255,162.299z"
				/>
		</g>
	</g>
	<g>
		<g>
			<g>
				<path style="fill:#D84821;" d="M444.602,338.989c0,0,15.73-10.508,34.86-12.621c0,0-17.359-10.569-52.327-10.388
					c-34.969,0.181-50.441,12.248-50.441,12.248s7.086,25.273,5.901,48.319c0,0,57.331-21.107,90.491-13.743
					C473.086,362.804,460.332,345.646,444.602,338.989z"/>
				<g>
					<g>
						<path style="fill:#3A1F04;" d="M376.753,330.672c4.814-2.017,9.636-3.654,14.558-5.122c4.914-1.451,9.895-2.658,14.916-3.628
							c5.014-1.004,10.098-1.634,15.184-2.027c5.089-0.418,10.202-0.313,15.273,0.004c-5.087-0.051-10.167,0.111-15.195,0.79
							c-5.025,0.656-10.016,1.541-14.92,2.793c-4.909,1.218-9.757,2.665-14.518,4.347c-4.743,1.686-9.474,3.583-13.937,5.733
							l-0.049,0.023c-0.795,0.383-1.75,0.049-2.133-0.746c-0.383-0.795-0.049-1.75,0.746-2.133
							C376.7,330.694,376.729,330.682,376.753,330.672z"/>
					</g>
					<g>
						<path style="fill:#3A1F04;" d="M378.645,333.582c4.615-1.649,9.21-2.976,13.887-4.159c4.669-1.169,9.383-2.132,14.124-2.904
							c4.737-0.796,9.517-1.311,14.3-1.618c4.783-0.349,9.583-0.259,14.353-0.038c-4.78,0.045-9.552,0.222-14.282,0.833
							c-4.73,0.569-9.431,1.343-14.072,2.391c-4.644,1.024-9.243,2.234-13.777,3.641c-4.518,1.412-9.036,3.001-13.329,4.811
							l-0.046,0.019c-0.813,0.343-1.751-0.039-2.093-0.852c-0.343-0.813,0.039-1.751,0.852-2.094
							C378.588,333.603,378.619,333.592,378.645,333.582z"/>
					</g>
					<g>
						<path style="fill:#3A1F04;" d="M384.125,335.988c3.888-0.929,7.744-1.696,11.64-2.394c3.892-0.683,7.794-1.298,11.718-1.748
							c3.924-0.441,7.856-0.811,11.803-0.917c3.943-0.099,7.896-0.021,11.797,0.486c-3.927-0.242-7.85-0.051-11.746,0.311
							c-3.898,0.369-7.766,1-11.613,1.699c-3.847,0.708-7.664,1.578-11.46,2.512c-3.786,0.946-7.581,1.975-11.271,3.125
							l-0.022,0.007c-0.843,0.263-1.739-0.208-2.002-1.05c-0.263-0.843,0.207-1.739,1.05-2.002
							C384.054,336.006,384.092,335.996,384.125,335.988z"/>
					</g>
					<g>
						<path style="fill:#3A1F04;" d="M393.277,337.348c3.019-0.434,5.999-0.77,9.005-1.062c3-0.291,6.007-0.515,9.018-0.648
							c3.01-0.139,6.025-0.2,9.037-0.081c3.006,0.123,6.026,0.345,8.95,1.034c-2.971-0.426-5.969-0.378-8.944-0.236
							c-2.978,0.147-5.946,0.472-8.9,0.874c-2.955,0.395-5.898,0.88-8.827,1.429c-2.924,0.549-5.861,1.148-8.728,1.825l-0.016,0.004
							c-0.859,0.203-1.721-0.329-1.923-1.189c-0.203-0.86,0.33-1.721,1.189-1.923C393.184,337.364,393.232,337.355,393.277,337.348z
							"/>
					</g>
					<g>
						<path style="fill:#3A1F04;" d="M390.58,344.234c2.977-0.661,5.923-1.221,8.899-1.74c2.97-0.517,5.951-0.968,8.943-1.328
							c2.99-0.366,5.993-0.656,9.005-0.765c3.006-0.105,6.035-0.112,9.003,0.354c-2.995-0.201-5.98,0.075-8.936,0.442
							c-2.958,0.372-5.893,0.921-8.808,1.544c-2.916,0.618-5.814,1.324-8.694,2.093c-2.874,0.768-5.757,1.589-8.565,2.48
							l-0.015,0.005c-0.842,0.267-1.741-0.198-2.008-1.04c-0.267-0.842,0.198-1.741,1.04-2.008
							C390.488,344.257,390.535,344.244,390.58,344.234z"/>
					</g>
					<g>
						<path style="fill:#3A1F04;" d="M388.657,348.51c2.977-0.661,5.924-1.221,8.899-1.74c2.97-0.517,5.951-0.968,8.943-1.328
							c2.99-0.367,5.992-0.656,9.005-0.765c3.006-0.105,6.035-0.112,9.003,0.354c-2.995-0.2-5.98,0.074-8.936,0.442
							c-2.958,0.372-5.893,0.921-8.808,1.544c-2.916,0.618-5.814,1.324-8.694,2.093c-2.874,0.768-5.757,1.589-8.565,2.48
							l-0.015,0.005c-0.842,0.267-1.741-0.198-2.008-1.04c-0.267-0.842,0.198-1.741,1.04-2.008
							C388.565,348.532,388.612,348.52,388.657,348.51z"/>
					</g>
					<g>
						<path style="fill:#3A1F04;" d="M387.87,353.124c2.977-0.661,5.924-1.221,8.899-1.74c2.97-0.517,5.951-0.968,8.943-1.328
							c2.99-0.366,5.992-0.656,9.005-0.765c3.006-0.105,6.035-0.112,9.003,0.354c-2.995-0.2-5.98,0.075-8.936,0.442
							c-2.958,0.372-5.893,0.921-8.808,1.544c-2.916,0.618-5.814,1.324-8.694,2.093c-2.874,0.768-5.757,1.589-8.565,2.48
							l-0.015,0.005c-0.842,0.267-1.741-0.198-2.008-1.04c-0.267-0.842,0.198-1.741,1.04-2.008
							C387.778,353.146,387.825,353.134,387.87,353.124z"/>
					</g>
					<g>
						<path style="fill:#3A1F04;" d="M387.87,357.491c2.977-0.661,5.924-1.221,8.899-1.74c2.97-0.517,5.951-0.968,8.943-1.328
							c2.99-0.366,5.992-0.656,9.005-0.765c3.006-0.105,6.035-0.112,9.003,0.354c-2.995-0.2-5.98,0.075-8.936,0.442
							c-2.958,0.372-5.893,0.921-8.808,1.544c-2.916,0.618-5.814,1.324-8.694,2.093c-2.874,0.768-5.757,1.589-8.565,2.48
							l-0.015,0.005c-0.842,0.267-1.741-0.198-2.008-1.04c-0.267-0.842,0.198-1.741,1.04-2.008
							C387.778,357.513,387.825,357.501,387.87,357.491z"/>
					</g>
					<g>
						<path style="fill:#3A1F04;" d="M387.225,362.548c2.977-0.661,5.923-1.221,8.899-1.74c2.97-0.517,5.951-0.968,8.943-1.328
							c2.99-0.366,5.992-0.655,9.005-0.765c3.006-0.105,6.035-0.112,9.003,0.354c-2.995-0.201-5.98,0.074-8.936,0.442
							c-2.958,0.372-5.893,0.921-8.808,1.544c-2.916,0.618-5.814,1.324-8.694,2.093c-2.874,0.769-5.757,1.589-8.565,2.48
							l-0.015,0.005c-0.842,0.267-1.741-0.198-2.008-1.04s0.198-1.741,1.04-2.008C387.132,362.571,387.18,362.558,387.225,362.548z"
							/>
					</g>
					<g>
						<path style="fill:#3A1F04;" d="M387.225,368.59c2.977-0.661,5.923-1.221,8.899-1.74c2.97-0.517,5.951-0.968,8.943-1.328
							c2.99-0.367,5.992-0.656,9.005-0.765c3.006-0.105,6.035-0.112,9.003,0.354c-2.995-0.2-5.98,0.074-8.936,0.442
							c-2.958,0.372-5.893,0.921-8.808,1.544c-2.916,0.618-5.814,1.324-8.694,2.093c-2.874,0.768-5.757,1.589-8.565,2.48
							l-0.015,0.005c-0.842,0.267-1.741-0.198-2.008-1.04c-0.267-0.842,0.198-1.741,1.04-2.008
							C387.132,368.612,387.18,368.599,387.225,368.59z"/>
					</g>
				</g>
			</g>
			<g>
				<path style="fill:#AD321E;" d="M376.694,328.228c0,0-3.513,11.626,35.173,7.44c0,0-8.739,17.829-33.703,19.788
					C378.165,355.456,375.106,335.602,376.694,328.228z"/>
				<g>
					<defs>
						<path id="SVGID_1_" d="M376.694,328.228c0,0-3.513,11.626,35.173,7.44c0,0-8.739,17.829-33.703,19.788
							C378.165,355.456,375.106,335.602,376.694,328.228z"/>
					</defs>
					<clipPath id="SVGID_00000109009182952206650790000011608914160194399360_">
						<use xlink:href="#SVGID_1_"  style="overflow:visible;"/>
					</clipPath>
					<g style="clip-path:url(#SVGID_00000109009182952206650790000011608914160194399360_);">
						<g>
							<path style="fill:#3A1F04;" d="M377.702,336.704c3.054,0.936,6.175,1.614,9.312,2.135c3.139,0.513,6.302,0.829,9.461,0.956
								c3.159,0.153,6.318,0.017,9.433-0.306c3.125-0.291,6.172-0.999,9.151-1.818l0.071-0.02c0.78-0.214,1.586,0.244,1.801,1.024
								c0.215,0.78-0.244,1.586-1.024,1.801c-0.034,0.009-0.072,0.018-0.107,0.025c-3.233,0.633-6.48,1.12-9.739,1.177
								c-3.252,0.088-6.496-0.024-9.7-0.425c-3.204-0.376-6.375-0.941-9.494-1.698C383.753,338.791,380.677,337.871,377.702,336.704
								z"/>
						</g>
						<g>
							<path style="fill:#3A1F04;" d="M379.394,340.134c2.443,0.805,4.938,1.428,7.446,1.94c2.51,0.507,5.042,0.876,7.576,1.117
								c2.533,0.257,5.075,0.326,7.595,0.257c2.525-0.039,5.019-0.37,7.472-0.772l0.062-0.01c0.799-0.131,1.553,0.41,1.684,1.209
								c0.131,0.799-0.41,1.553-1.209,1.684c-0.045,0.007-0.092,0.013-0.136,0.016c-2.651,0.183-5.293,0.275-7.912,0.068
								c-2.616-0.177-5.211-0.497-7.763-1.003c-2.553-0.49-5.073-1.107-7.548-1.856
								C384.189,342.029,381.751,341.168,379.394,340.134z"/>
						</g>
						<g>
							<path style="fill:#3A1F04;" d="M380.885,345.014c3.952,0.705,7.95,1.069,11.926,1.16c1.988,0.055,3.972-0.003,5.939-0.129
								c1.969-0.118,3.913-0.39,5.825-0.72l0.04-0.007c0.798-0.138,1.557,0.398,1.695,1.196c0.138,0.798-0.398,1.557-1.196,1.695
								c-0.056,0.01-0.12,0.016-0.176,0.019c-2.072,0.104-4.131,0.135-6.173,0.011c-2.041-0.118-4.068-0.307-6.074-0.608
								C388.679,347.049,384.727,346.194,380.885,345.014z"/>
						</g>
						<g>
							<path style="fill:#3A1F04;" d="M380.885,349.389c3.162,0.37,6.338,0.53,9.49,0.516c3.149-0.023,6.29-0.254,9.283-0.846
								l0.01-0.002c0.795-0.157,1.567,0.36,1.724,1.155c0.157,0.795-0.36,1.567-1.155,1.724c-0.072,0.014-0.153,0.023-0.224,0.027
								c-3.321,0.137-6.557-0.134-9.741-0.599C387.092,350.888,383.956,350.239,380.885,349.389z"/>
						</g>
						<g>
							<path style="fill:#3A1F04;" d="M382.319,354.149c1.789-0.127,3.57-0.308,5.334-0.535c1.76-0.233,3.515-0.515,5.173-0.921
								c0.792-0.194,1.592,0.291,1.786,1.084c0.194,0.792-0.291,1.592-1.083,1.786c-0.132,0.032-0.264,0.046-0.394,0.042
								l-0.013-0.001c-1.882-0.063-3.686-0.273-5.48-0.527C385.85,354.816,384.077,354.509,382.319,354.149z"/>
						</g>
					</g>
				</g>
			</g>
		</g>
		<g>
			<g>
				<path style="fill:#D84821;" d="M55.398,338.989c0,0-15.73-10.508-34.86-12.621c0,0,17.359-10.569,52.327-10.388
					c34.968,0.181,50.441,12.248,50.441,12.248s-7.086,25.273-5.901,48.319c0,0-57.331-21.107-90.491-13.743
					C26.914,362.804,39.668,345.646,55.398,338.989z"/>
				<g>
					<g>
						<path style="fill:#3A1F04;" d="M121.888,333.562c-4.463-2.15-9.194-4.048-13.937-5.733c-4.761-1.681-9.609-3.128-14.518-4.347
							c-4.904-1.252-9.895-2.137-14.92-2.793c-5.029-0.68-10.108-0.841-15.195-0.79c5.071-0.317,10.184-0.423,15.273-0.004
							c5.085,0.394,10.169,1.024,15.184,2.027c5.021,0.97,10.001,2.177,14.915,3.628c4.922,1.468,9.744,3.105,14.558,5.122
							c0.814,0.341,1.198,1.277,0.857,2.091c-0.341,0.814-1.277,1.198-2.091,0.857c-0.024-0.01-0.048-0.021-0.071-0.032
							L121.888,333.562z"/>
					</g>
					<g>
						<path style="fill:#3A1F04;" d="M120.151,336.54c-4.293-1.809-8.811-3.399-13.329-4.811c-4.534-1.408-9.133-2.618-13.777-3.641
							c-4.64-1.048-9.342-1.822-14.072-2.391c-4.731-0.612-9.502-0.789-14.282-0.833c4.77-0.222,9.57-0.311,14.353,0.038
							c4.783,0.306,9.563,0.822,14.3,1.618c4.741,0.771,9.456,1.735,14.124,2.904c4.677,1.183,9.272,2.51,13.887,4.159
							c0.831,0.297,1.264,1.212,0.967,2.043c-0.297,0.831-1.212,1.264-2.043,0.967c-0.026-0.009-0.052-0.02-0.078-0.03
							L120.151,336.54z"/>
					</g>
					<g>
						<path style="fill:#3A1F04;" d="M115.006,339.062c-3.689-1.15-7.485-2.179-11.27-3.125c-3.795-0.935-7.612-1.805-11.46-2.512
							c-3.847-0.698-7.715-1.33-11.613-1.699c-3.896-0.362-7.819-0.553-11.746-0.311c3.901-0.507,7.854-0.585,11.797-0.486
							c3.946,0.105,7.879,0.476,11.803,0.917c3.924,0.45,7.826,1.065,11.718,1.748c3.896,0.699,7.753,1.466,11.64,2.394
							c0.859,0.205,1.388,1.067,1.183,1.926c-0.205,0.859-1.067,1.388-1.926,1.183c-0.034-0.008-0.067-0.017-0.1-0.027
							L115.006,339.062z"/>
					</g>
					<g>
						<path style="fill:#3A1F04;" d="M106.112,340.484c-2.867-0.677-5.804-1.276-8.728-1.825c-2.929-0.549-5.872-1.034-8.827-1.429
							c-2.954-0.401-5.922-0.727-8.9-0.874c-2.975-0.142-5.973-0.191-8.944,0.236c2.924-0.689,5.945-0.911,8.95-1.034
							c3.012-0.119,6.027-0.058,9.037,0.081c3.011,0.133,6.018,0.357,9.018,0.648c3.006,0.292,5.986,0.628,9.005,1.062
							c0.874,0.126,1.481,0.936,1.355,1.81c-0.126,0.874-0.936,1.481-1.81,1.355c-0.046-0.007-0.092-0.015-0.137-0.026
							L106.112,340.484z"/>
					</g>
					<g>
						<path style="fill:#3A1F04;" d="M108.574,347.314c-2.808-0.891-5.691-1.712-8.565-2.48c-2.88-0.77-5.777-1.476-8.694-2.093
							c-2.915-0.624-5.85-1.173-8.808-1.544c-2.956-0.367-5.941-0.642-8.936-0.442c2.968-0.466,5.997-0.459,9.003-0.354
							c3.012,0.109,6.014,0.398,9.005,0.765c2.992,0.361,5.973,0.811,8.943,1.328c2.975,0.519,5.922,1.079,8.899,1.74
							c0.862,0.191,1.406,1.046,1.214,1.908c-0.192,0.862-1.046,1.406-1.908,1.214c-0.046-0.01-0.091-0.022-0.134-0.036
							L108.574,347.314z"/>
					</g>
					<g>
						<path style="fill:#3A1F04;" d="M110.497,351.59c-2.808-0.891-5.691-1.711-8.565-2.48c-2.88-0.77-5.778-1.476-8.694-2.093
							c-2.915-0.624-5.85-1.172-8.808-1.544c-2.956-0.367-5.941-0.642-8.936-0.442c2.968-0.466,5.997-0.459,9.003-0.354
							c3.012,0.109,6.014,0.398,9.005,0.765c2.992,0.361,5.973,0.811,8.943,1.328c2.975,0.519,5.922,1.079,8.899,1.74
							c0.862,0.191,1.406,1.046,1.214,1.908c-0.192,0.862-1.046,1.406-1.908,1.214c-0.046-0.01-0.09-0.022-0.134-0.036
							L110.497,351.59z"/>
					</g>
					<g>
						<path style="fill:#3A1F04;" d="M111.284,356.204c-2.808-0.892-5.691-1.712-8.565-2.48c-2.879-0.77-5.777-1.476-8.694-2.093
							c-2.915-0.624-5.85-1.173-8.808-1.544c-2.956-0.367-5.941-0.642-8.936-0.442c2.968-0.466,5.997-0.459,9.003-0.354
							c3.012,0.109,6.014,0.398,9.005,0.765c2.992,0.361,5.973,0.811,8.943,1.328c2.975,0.519,5.922,1.079,8.899,1.74
							c0.862,0.191,1.406,1.046,1.214,1.908c-0.191,0.862-1.046,1.406-1.908,1.214c-0.046-0.01-0.09-0.022-0.134-0.036
							L111.284,356.204z"/>
					</g>
					<g>
						<path style="fill:#3A1F04;" d="M111.284,360.571c-2.808-0.891-5.691-1.711-8.565-2.48c-2.879-0.77-5.777-1.475-8.694-2.093
							c-2.915-0.624-5.85-1.173-8.808-1.544c-2.956-0.367-5.941-0.642-8.936-0.442c2.968-0.466,5.997-0.459,9.003-0.354
							c3.012,0.109,6.014,0.398,9.005,0.765c2.992,0.361,5.973,0.811,8.943,1.328c2.975,0.519,5.922,1.079,8.899,1.74
							c0.862,0.191,1.406,1.046,1.214,1.908c-0.191,0.862-1.046,1.406-1.908,1.214c-0.046-0.01-0.09-0.022-0.134-0.036
							L111.284,360.571z"/>
					</g>
					<g>
						<path style="fill:#3A1F04;" d="M111.929,365.628c-2.808-0.892-5.691-1.712-8.565-2.48c-2.88-0.77-5.777-1.476-8.694-2.093
							c-2.915-0.624-5.85-1.172-8.808-1.544c-2.956-0.367-5.941-0.642-8.936-0.442c2.968-0.466,5.997-0.459,9.003-0.354
							c3.012,0.109,6.014,0.398,9.005,0.765c2.992,0.361,5.973,0.812,8.943,1.328c2.975,0.519,5.922,1.079,8.899,1.74
							c0.862,0.191,1.406,1.046,1.214,1.908c-0.191,0.862-1.046,1.406-1.908,1.214c-0.046-0.01-0.09-0.022-0.134-0.036
							L111.929,365.628z"/>
					</g>
					<g>
						<path style="fill:#3A1F04;" d="M111.929,371.67c-2.808-0.891-5.691-1.712-8.565-2.48c-2.88-0.77-5.777-1.476-8.694-2.093
							c-2.915-0.624-5.85-1.173-8.808-1.544c-2.956-0.367-5.941-0.642-8.936-0.442c2.968-0.466,5.997-0.459,9.003-0.354
							c3.012,0.109,6.014,0.398,9.005,0.765c2.992,0.361,5.973,0.811,8.943,1.328c2.975,0.519,5.922,1.079,8.899,1.74
							c0.862,0.191,1.406,1.046,1.214,1.908c-0.191,0.862-1.046,1.406-1.908,1.214c-0.046-0.01-0.09-0.022-0.134-0.036
							L111.929,371.67z"/>
					</g>
				</g>
			</g>
			<g>
				<path style="fill:#AD321E;" d="M123.306,328.228c0,0,3.513,11.626-35.174,7.44c0,0,8.739,17.829,33.703,19.788
					C121.835,355.456,124.894,335.602,123.306,328.228z"/>
				<g>
					<defs>
						<path id="SVGID_00000012457030110964665940000009176573610582714762_" d="M123.306,328.228c0,0,3.513,11.626-35.174,7.44
							c0,0,8.739,17.829,33.703,19.788C121.835,355.456,124.894,335.602,123.306,328.228z"/>
					</defs>
					<clipPath id="SVGID_00000096747911185880724050000001837764910029692050_">
						<use xlink:href="#SVGID_00000012457030110964665940000009176573610582714762_"  style="overflow:visible;"/>
					</clipPath>
					<g style="clip-path:url(#SVGID_00000096747911185880724050000001837764910029692050_);">
						<g>
							<path style="fill:#3A1F04;" d="M122.298,336.704c-2.975,1.167-6.051,2.087-9.166,2.852c-3.118,0.757-6.29,1.322-9.494,1.698
								c-3.203,0.401-6.448,0.513-9.7,0.425c-3.259-0.056-6.506-0.543-9.739-1.177c-0.794-0.156-1.312-0.925-1.156-1.719
								c0.156-0.794,0.925-1.311,1.719-1.156c0.035,0.007,0.069,0.015,0.103,0.024l0.075,0.021c2.979,0.819,6.027,1.527,9.151,1.818
								c3.115,0.323,6.274,0.459,9.433,0.306c3.159-0.127,6.322-0.444,9.461-0.956C116.123,338.318,119.244,337.641,122.298,336.704
								z"/>
						</g>
						<g>
							<path style="fill:#3A1F04;" d="M120.606,340.134c-2.357,1.034-4.795,1.895-7.267,2.65c-2.475,0.749-4.995,1.366-7.548,1.856
								c-2.552,0.506-5.146,0.826-7.763,1.003c-2.618,0.207-5.26,0.116-7.911-0.068c-0.808-0.056-1.417-0.756-1.361-1.564
								c0.056-0.808,0.756-1.417,1.563-1.361c0.045,0.003,0.09,0.008,0.134,0.015l0.065,0.011c2.453,0.402,4.947,0.733,7.472,0.772
								c2.521,0.068,5.063,0,7.595-0.257c2.534-0.24,5.066-0.61,7.576-1.117C115.669,341.562,118.163,340.94,120.606,340.134z"/>
						</g>
						<g>
							<path style="fill:#3A1F04;" d="M119.115,345.014c-3.842,1.18-7.794,2.035-11.805,2.618c-2.006,0.301-4.033,0.49-6.074,0.608
								c-2.042,0.125-4.101,0.093-6.173-0.011c-0.809-0.04-1.432-0.729-1.392-1.538c0.041-0.809,0.729-1.432,1.538-1.392
								c0.057,0.003,0.113,0.009,0.168,0.018l0.048,0.008c1.913,0.33,3.856,0.601,5.825,0.72c1.967,0.126,3.951,0.183,5.939,0.129
								C111.165,346.084,115.163,345.719,119.115,345.014z"/>
						</g>
						<g>
							<path style="fill:#3A1F04;" d="M119.115,349.389c-3.071,0.849-6.207,1.499-9.388,1.975c-3.184,0.465-6.42,0.736-9.741,0.599
								c-0.81-0.033-1.439-0.717-1.406-1.527c0.033-0.81,0.717-1.439,1.527-1.406c0.074,0.003,0.146,0.012,0.216,0.025l0.018,0.004
								c2.993,0.591,6.134,0.823,9.283,0.846C112.777,349.919,115.953,349.76,119.115,349.389z"/>
						</g>
						<g>
							<path style="fill:#3A1F04;" d="M117.682,354.149c-1.759,0.36-3.532,0.667-5.322,0.928c-1.794,0.254-3.598,0.464-5.48,0.527
								l-0.006,0c-0.815,0.027-1.499-0.611-1.526-1.427c-0.027-0.815,0.612-1.499,1.427-1.526c0.136-0.005,0.275,0.011,0.401,0.041
								c1.658,0.406,3.413,0.688,5.173,0.921C114.112,353.841,115.893,354.022,117.682,354.149z"/>
						</g>
					</g>
				</g>
			</g>
		</g>
		<path style="fill:#EF5722;" d="M412.582,335.668c0,0-33.329,39.17-162.225,39.17s-162.225-39.17-162.225-39.17
			s-4.042,15.096-3.509,27.136c0.533,12.04,6.356,24.515,6.356,24.515s60.1,31.063,159.378,31.063
			c99.277,0,159.378-31.063,159.378-31.063s5.824-12.475,6.356-24.515C416.624,350.764,412.582,335.668,412.582,335.668z"/>
		<path id="SVGID_x5F_00000046310062579614334890000016381848379808721040_x5F_" style="fill:none;" d="M109.742,392.659
			c0,0,121.312,45.623,281.231,0"/>
		<text>		<textPath  xlink:href="#SVGID_x5F_00000046310062579614334890000016381848379808721040_x5F_" startOffset="0%">
<tspan  style="fill:#381F03;stroke:#381F03;stroke-width:2.2485;stroke-miterlimit:10; font-family:'MarckScript-Regular'; font-size:75.3242px; letter-spacing:-104;">Beer Day</tspan>		</textPath>
</text>
		<g>
			<path id="SVGID_x5F_00000025428277372959796400000018306880743962122647_x5F_" style="fill:none;" d="M109.742,388.076
				c0,0,121.312,45.623,281.231,0"/>
			<text>			<textPath  xlink:href="#SVGID_x5F_00000025428277372959796400000018306880743962122647_x5F_" startOffset="0%">
<tspan  style="fill:#EF5722;stroke:#EF5722;stroke-width:4.497;stroke-miterlimit:10; font-family:'MarckScript-Regular'; font-size:75.3242px; letter-spacing:-104;">Beer Day</tspan>			</textPath>
</text>
			<path id="SVGID_x5F_00000008831366239034862650000010502561050240696474_x5F_" style="fill:none;" d="M109.742,388.076
				c0,0,121.312,45.623,281.231,0"/>
			<text>			<textPath  xlink:href="#SVGID_x5F_00000008831366239034862650000010502561050240696474_x5F_" startOffset="0%">
<tspan  style="fill:#FEFDFF; font-family:'MarckScript-Regular'; font-size:75.3242px; letter-spacing:-104;">Beer Day</tspan>			</textPath>
</text>
		</g>
	</g>
</g>
</svg>
